<svg width="17" height="17" viewBox="0 0 17 17" fill="none" xmlns="http://www.w3.org/2000/svg">
<path d="M4.73206 1H12.2679C14.3493 1 16 2.65072 16 4.73206V12.2679C16 14.3493 14.3493 16 12.2679 16H4.73206C2.65072 16 1 14.3493 1 12.2679V4.73206C1 2.65072 2.65072 1 4.73206 1Z" stroke="white" stroke-width="2" stroke-linecap="round" stroke-linejoin="round"/>
<path d="M12.5 4C12.25 4 12 4.25 12 4.5C12 4.75 12.25 5 12.5 5C12.75 5 13 4.75 13 4.5C13 4.25 12.75 4 12.5 4Z" stroke="white" stroke-width="1.5" stroke-linecap="round" stroke-linejoin="round"/>
<path d="M10.6291 10.6387C11.7885 9.48966 11.7903 7.56287 10.6344 6.4114C9.47456 5.1962 7.52544 5.1962 6.36555 6.4114C5.20969 7.56287 5.21149 9.48966 6.37093 10.6387C7.52968 11.7871 9.47032 11.7871 10.6291 10.6387Z" stroke="white" stroke-linecap="round" stroke-linejoin="round"/>
</svg>
