<svg width="17" height="17" viewBox="0 0 17 17" fill="none" xmlns="http://www.w3.org/2000/svg">
<path d="M8.5 4C7.16667 4 6 5.08333 6 6.5C6 7.83333 7.08333 9 8.5 9C9.83333 9 11 7.91667 11 6.5C11 5.08333 9.83333 4 8.5 4ZM8.5 7.91667C7.66667 7.91667 7.08333 7.25 7.08333 6.5C7.08333 5.66667 7.75 5.08333 8.5 5.08333C9.33333 5.08333 9.91667 5.75 9.91667 6.5C9.91667 7.25 9.25 7.91667 8.5 7.91667Z" fill="white"/>
<path d="M10.9455 9.66055C10.9455 9.80734 10.8728 9.88073 10.7274 9.95413C10.2913 10.2477 9.85522 10.3945 9.41911 10.5413L8.98301 10.6147L10.6547 12.3028C10.7274 12.3761 10.8001 12.5229 10.8001 12.5963C10.8001 12.7431 10.7274 12.8165 10.6547 12.8899C10.5094 13.0367 10.2186 13.0367 10.0006 12.8899L8.47422 11.3486L6.94784 12.8899C6.80247 13.0367 6.51174 13.0367 6.29368 12.8899C6.14831 12.7431 6.14831 12.4495 6.29368 12.2294L7.96543 10.5413L7.52932 10.4679C7.09321 10.3945 6.58442 10.1743 6.221 9.88073C6.00294 9.73394 5.93026 9.44037 6.07563 9.22018C6.14831 9.14679 6.221 9.07339 6.36637 9C6.51174 9 6.58442 9 6.72979 9.07339C7.82006 9.73394 9.20106 9.73394 10.2913 9.07339C10.364 9 10.5094 9 10.6547 9C10.8001 9 10.8728 9.07339 10.9455 9.22018C11.0182 9.44037 11.0182 9.58716 10.9455 9.66055Z" fill="white"/>
<path d="M10.7103 9.95413C10.2758 10.2477 9.84126 10.3945 9.40673 10.5413L8.97221 10.6147L10.6379 12.3028C10.7103 12.3761 10.7827 12.5229 10.7827 12.5963C10.7827 12.7431 10.7103 12.8165 10.6379 12.8899C10.4931 13.0367 10.2034 13.0367 9.9861 12.8899L8.46526 11.3486L6.94441 12.8899C6.79957 13.0367 6.50988 13.0367 6.29262 12.8899C6.14778 12.7431 6.14778 12.4495 6.29262 12.2294L7.95831 10.5413L7.52378 10.4679C7.08925 10.3945 6.5831 10.1743 6.221 9.88073C6.00294 9.73394 5.93026 9.44037 6.07563 9.22018C6.14805 9.14679 6.2202 9.07339 6.36504 9C6.50988 9 6.5823 9 6.72715 9.07339C7.81347 9.73394 9.18947 9.73394 10.2758 9.07339C10.3482 9 10.4931 9 10.6379 9C10.7827 9 10.8552 9.07339 10.9276 9.22018C11 9.29358 11 9.44037 11 9.58716C10.8552 9.80734 10.7827 9.88073 10.7103 9.95413Z" fill="white"/>
<path d="M8.5 16C12.6667 16 16 12.5972 16 8.5C16 4.33333 12.5972 1 8.5 1C4.33333 1 1 4.40278 1 8.5C1 12.6667 4.33333 16 8.5 16Z" stroke="white" stroke-width="2" stroke-miterlimit="10" stroke-linecap="round" stroke-linejoin="round"/>
</svg>
