<svg width="17" height="17" viewBox="0 0 17 17" fill="none" xmlns="http://www.w3.org/2000/svg">
<path d="M11.9622 7.18645C11.8861 7.18645 11.8099 7.18645 11.7338 7.18645C11.0487 7.18645 10.3635 6.80644 9.98288 6.19841V9.46655C9.98288 10.8346 8.9171 11.8986 7.5468 11.8986C6.1765 11.8986 5.11072 10.8346 5.11072 9.46655C5.11072 8.09849 6.1765 7.03445 7.5468 7.03445C7.62293 7.03445 7.62293 7.03445 7.69905 7.03445V8.2505C7.62293 8.2505 7.62293 8.2505 7.5468 8.2505C6.86165 8.2505 6.32876 8.78252 6.32876 9.46655C6.32876 10.1506 6.86165 10.6826 7.5468 10.6826C8.23195 10.6826 8.84097 10.1506 8.84097 9.46655V3.91832H9.98288C10.059 4.90636 10.8964 5.74239 11.9622 5.8184V7.18645Z" fill="white"/>
<path d="M12.8759 16H4.12123C2.3703 16 1 14.5606 1 12.8939V4.10606C1 2.36364 2.44642 1 4.12123 1H12.8759C14.6268 1 15.9971 2.43939 15.9971 4.10606V12.8182C16.0733 14.5606 14.6268 16 12.8759 16Z" stroke="white" stroke-width="2" stroke-miterlimit="10"/>
</svg>
