<svg width="17" height="17" viewBox="0 0 17 17" fill="none" xmlns="http://www.w3.org/2000/svg">
<path d="M8.5 16C12.6667 16 16 12.5972 16 8.5C16 4.33333 12.5972 1 8.5 1C4.33333 1 1 4.40278 1 8.5C1 12.6667 4.33333 16 8.5 16Z" stroke="white" stroke-width="2" stroke-miterlimit="10" stroke-linecap="round" stroke-linejoin="round"/>
<path d="M7.72881 7H8.5M8.5 7V10C7.66949 10 6.83898 9.63636 6.18644 8.95455C5.23729 7.95455 5 7.18182 5 7.04545M8.5 7H9.375M12 10C12 10 11.6635 9.54545 10.9904 9.04545C10.5865 8.68182 9.91346 8.5 9.375 8.5C9.91346 8.5 10.5192 8.31818 10.9904 7.95455C11.6635 7.45455 12 7 12 7" stroke="white" stroke-width="1.5" stroke-linecap="round" stroke-linejoin="round"/>
</svg>
