<?xml version="1.0" standalone="no"?><!-- Generator: Gravit.io --><svg xmlns="http://www.w3.org/2000/svg" xmlns:xlink="http://www.w3.org/1999/xlink" style="isolation:isolate" viewBox="0 0 61 13" width="61" height="13"><defs><clipPath id="_clipPath_CBDuiAJpKQDVfnS53O1kGfBLrdE8YHA3"><rect width="61" height="13"/></clipPath></defs><g clip-path="url(#_clipPath_CBDuiAJpKQDVfnS53O1kGfBLrdE8YHA3)"><path d=" M 0.5 11.542 L 12.37 11.542 C 18.415 11.542 23.965 8.203 26.797 2.862 C 27.717 1.128 29.51 0.034 31.474 0.009 C 33.437 -0.015 35.257 1.033 36.22 2.744 L 36.31 2.904 C 39.315 8.24 44.963 11.542 51.087 11.542 L 60.5 11.542 C 60.776 11.542 61 11.766 61 12.042 C 61 12.318 60.776 12.542 60.5 12.542 L 0.5 12.542 C 0.224 12.542 0 12.318 0 12.042 C 0 11.766 0.224 11.542 0.5 11.542 Z " fill-rule="evenodd" fill="rgb(255,255,255)"/></g></svg>