<svg width="9" height="9" viewBox="0 0 9 9" fill="none" xmlns="http://www.w3.org/2000/svg">
<path d="M1.4714 0.528595C1.21105 0.268246 0.788945 0.268246 0.528595 0.528595C0.268246 0.788945 0.268246 1.21105 0.528595 1.4714L1.4714 0.528595ZM7.5286 8.4714C7.78895 8.73175 8.21105 8.73175 8.4714 8.4714C8.73175 8.21105 8.73175 7.78895 8.4714 7.5286L7.5286 8.4714ZM8.4714 1.4714C8.73175 1.21105 8.73175 0.788945 8.4714 0.528595C8.21105 0.268246 7.78895 0.268246 7.5286 0.528595L8.4714 1.4714ZM0.528595 7.5286C0.268246 7.78895 0.268246 8.21105 0.528595 8.4714C0.788945 8.73175 1.21105 8.73175 1.4714 8.4714L0.528595 7.5286ZM0.528595 1.4714L7.5286 8.4714L8.4714 7.5286L1.4714 0.528595L0.528595 1.4714ZM7.5286 0.528595L0.528595 7.5286L1.4714 8.4714L8.4714 1.4714L7.5286 0.528595Z" fill="#D3123F"/>
</svg>
