<svg width="13" height="13" viewBox="0 0 13 13" fill="none" xmlns="http://www.w3.org/2000/svg">
<path d="M9.19801 7.78391C8.80252 7.39841 8.16941 7.40651 7.78391 7.80199C7.39841 8.19748 7.40651 8.83059 7.80199 9.21609L9.19801 7.78391ZM10.6439 11.9862C11.0394 12.3717 11.6725 12.3636 12.058 11.9681C12.4435 11.5727 12.4354 10.9395 12.0399 10.554L10.6439 11.9862ZM5 8C3.34315 8 2 6.65685 2 5H0C0 7.76142 2.23858 10 5 10V8ZM8 5C8 6.65685 6.65685 8 5 8V10C7.76142 10 10 7.76142 10 5H8ZM5 2C6.65685 2 8 3.34315 8 5H10C10 2.23858 7.76142 0 5 0V2ZM5 0C2.23858 0 0 2.23858 0 5H2C2 3.34315 3.34315 2 5 2V0ZM7.80199 9.21609L10.6439 11.9862L12.0399 10.554L9.19801 7.78391L7.80199 9.21609Z" fill="#CFD8DC"/>
</svg>
