<svg width="7" height="7" viewBox="0 0 7 7" fill="none" xmlns="http://www.w3.org/2000/svg">
<path d="M1.4714 0.528595C1.21105 0.268246 0.788945 0.268246 0.528595 0.528595C0.268246 0.788945 0.268246 1.21105 0.528595 1.4714L1.4714 0.528595ZM5.5286 6.4714C5.78895 6.73175 6.21105 6.73175 6.4714 6.4714C6.73175 6.21105 6.73175 5.78895 6.4714 5.5286L5.5286 6.4714ZM6.4714 1.4714C6.73175 1.21105 6.73175 0.788945 6.4714 0.528595C6.21105 0.268246 5.78895 0.268246 5.5286 0.528595L6.4714 1.4714ZM0.528595 5.5286C0.268246 5.78895 0.268246 6.21105 0.528595 6.4714C0.788945 6.73175 1.21105 6.73175 1.4714 6.4714L0.528595 5.5286ZM0.528595 1.4714L5.5286 6.4714L6.4714 5.5286L1.4714 0.528595L0.528595 1.4714ZM5.5286 0.528595L0.528595 5.5286L1.4714 6.4714L6.4714 1.4714L5.5286 0.528595Z" fill="white"/>
</svg>
