<svg width="65" height="42" viewBox="0 0 65 42" fill="none" xmlns="http://www.w3.org/2000/svg">
<path d="M52.5704 10.863L38.5806 31.137" stroke="#C8132C" stroke-width="3" stroke-miterlimit="10" stroke-linecap="round"/>
<path d="M39.312 17.9863C41.231 17.9863 42.7866 16.4326 42.7866 14.516C42.7866 12.5994 41.231 11.0457 39.312 11.0457C37.393 11.0457 35.8374 12.5994 35.8374 14.516C35.8374 16.4326 37.393 17.9863 39.312 17.9863Z" stroke="#C8132C" stroke-width="3" stroke-miterlimit="10" stroke-linecap="round"/>
<path d="M51.8389 30.9543C53.7578 30.9543 55.3135 29.4006 55.3135 27.484C55.3135 25.5674 53.7578 24.0137 51.8389 24.0137C49.9199 24.0137 48.3643 25.5674 48.3643 27.484C48.3643 29.4006 49.9199 30.9543 51.8389 30.9543Z" stroke="#C8132C" stroke-width="3" stroke-miterlimit="10" stroke-linecap="round"/>
<path d="M28.5223 2.64388V14.3334H17.0927L27.8822 2.18726H60.1594C61.6224 2.18726 62.9025 3.46579 62.9025 4.92698V37.1644C62.9025 38.6256 61.6224 39.9042 60.1594 39.9042H4.93158C3.46859 39.9042 2.18848 38.6256 2.18848 37.1644V4.92698C2.18848 3.46579 3.46859 2.18726 4.93158 2.18726H16.9098V7.39274" stroke="#C8132C" stroke-width="3" stroke-miterlimit="10" stroke-linejoin="round"/>
<path d="M17.0015 18.6256V23.4658" stroke="#C8132C" stroke-width="3" stroke-miterlimit="10" stroke-linejoin="round"/>
<path d="M17.0015 26.7535V31.5937" stroke="#C8132C" stroke-width="3" stroke-miterlimit="10" stroke-linejoin="round"/>
<path d="M17.0015 34.8813V39.7215" stroke="#C8132C" stroke-width="3" stroke-miterlimit="10" stroke-linejoin="round"/>
</svg>
