<svg width="16" height="16" viewBox="0 0 16 16" fill="none" xmlns="http://www.w3.org/2000/svg">
<path fill-rule="evenodd" clip-rule="evenodd" d="M14.5045 11.2869L13.5123 10.2946C13.0166 9.79891 12.2129 9.79891 11.7181 10.2946L10.9382 11.0745C10.7639 11.2488 10.5 11.3072 10.275 11.2082C9.14484 10.7133 8.02825 9.96302 7.03262 8.96738C6.04121 7.97598 5.29343 6.86446 4.79773 5.73856C4.69453 5.50593 4.75459 5.23271 4.93477 5.05253L5.63349 4.35381C6.20109 3.78621 6.20109 2.98344 5.70539 2.48774L4.71314 1.49549C4.05249 0.834837 2.98157 0.834837 2.32091 1.49549L1.76938 2.04618C1.14257 2.67299 0.881181 3.57727 1.05036 4.47393C1.46824 6.68428 2.75233 9.10442 4.82395 11.176C6.89558 13.2477 9.31572 14.5318 11.5261 14.9496C12.4227 15.1188 13.327 14.8574 13.9538 14.2306L14.5045 13.6799C15.1652 13.0193 15.1652 11.9484 14.5045 11.2869Z" stroke="white" stroke-width="1.2" stroke-linecap="round" stroke-linejoin="round"/>
</svg>
