<svg width="47" height="43" viewBox="0 0 47 43" fill="none" xmlns="http://www.w3.org/2000/svg">
<path fill-rule="evenodd" clip-rule="evenodd" d="M28.4238 40.6484C32.9 40.6484 36.9286 38.8568 39.8381 35.9453C42.7476 33.0339 44.5381 29.0026 44.5381 24.5234C44.5381 20.0443 42.7476 16.013 39.8381 13.1016C36.9286 10.1901 32.9 8.39844 28.4238 8.39844C23.9476 8.39844 19.919 10.1901 17.0095 13.1016C14.1 16.013 12.3095 20.0443 12.3095 24.5234C12.3095 29.0026 14.1 33.0339 17.0095 35.9453C19.919 38.8568 23.9476 40.6484 28.4238 40.6484ZM28.4238 43C23.2762 43 18.6881 40.8724 15.331 37.513C13.5405 35.8333 12.1976 33.7057 11.1905 31.3542H8.28095C7.60952 31.3542 7.05 30.7943 7.05 30.1224C7.05 29.4505 7.60952 28.8906 8.28095 28.8906H10.4071C10.0714 27.7708 9.95952 26.651 9.84762 25.4193H4.47619C3.80476 25.4193 3.24524 24.8594 3.24524 24.1875C3.24524 23.5156 3.80476 22.9557 4.47619 22.9557H9.84762C9.95952 21.724 10.0714 20.6042 10.4071 19.4844H6.93809C6.26667 19.4844 5.70714 18.9245 5.70714 18.2526C5.70714 17.5807 6.26667 17.0208 6.93809 17.0208H11.1905C11.6381 15.7891 12.3095 14.6693 12.981 13.5495H1.11905C0.559524 13.9974 0 13.4375 0 12.7656C0 12.0937 0.559524 11.5339 1.23095 11.5339H14.9952C16.3381 10.1901 17.7929 9.07031 19.3595 8.0625H7.1619C6.49048 8.0625 5.93095 7.5026 5.93095 6.83073C5.93095 6.15885 6.49048 5.59896 7.1619 5.59896H28.5357C33.5714 5.82292 38.0476 7.61458 41.6286 11.1979C44.9857 14.5573 47.1119 19.2604 47.1119 24.2995C47.1119 29.4505 44.9857 34.0417 41.6286 37.401C38.2714 40.8724 33.5714 43 28.4238 43ZM21.0381 37.2891C20.4786 36.9531 20.2548 36.2812 20.5905 35.6094C20.9262 35.0495 21.5976 34.8255 22.269 35.1615C22.8286 35.4974 23.0524 36.1693 22.7167 36.8411C22.269 37.401 21.5976 37.625 21.0381 37.2891ZM34.6905 13.5495C34.131 13.2135 33.9071 12.5417 34.2429 11.8698C34.5786 11.3099 35.25 11.0859 35.9214 11.4219C36.4809 11.7578 36.7048 12.4297 36.369 13.1016C36.0333 13.6615 35.25 13.8854 34.6905 13.5495ZM15.5548 16.9089C15.8905 16.349 16.5619 16.125 17.2333 16.4609C17.7929 16.7969 18.0167 17.4688 17.681 18.1406C17.3452 18.7005 16.6738 18.9245 16.0024 18.5885C15.4429 18.2526 15.219 17.4688 15.5548 16.9089ZM39.2786 30.6823C39.6143 30.1224 40.2857 29.8984 40.9571 30.2344C41.5167 30.5703 41.7405 31.2422 41.4048 31.9141C41.069 32.474 40.3976 32.6979 39.7262 32.362C39.1667 31.9141 38.9429 31.2422 39.2786 30.6823ZM15.5548 31.8021C15.219 31.2422 15.4429 30.4583 16.0024 30.1224C16.5619 29.7865 17.3452 30.0104 17.681 30.5703C18.0167 31.1302 17.7929 31.9141 17.2333 32.25C16.6738 32.5859 15.8905 32.362 15.5548 31.8021ZM39.2786 18.1406C38.9429 17.5807 39.1667 16.7969 39.7262 16.4609C40.2857 16.125 41.069 16.349 41.4048 16.9089C41.7405 17.4688 41.5167 18.2526 40.9571 18.5885C40.3976 18.9245 39.6143 18.7005 39.2786 18.1406ZM21.0381 11.5339C21.5976 11.1979 22.3809 11.4219 22.7167 11.9818C23.0524 12.5417 22.8286 13.3255 22.269 13.6615C21.7095 13.9974 20.9262 13.7734 20.5905 13.2135C20.2548 12.5417 20.4786 11.8698 21.0381 11.5339ZM34.6905 35.2734C35.25 34.9375 36.0333 35.1615 36.369 35.7214C36.7048 36.2812 36.4809 37.0651 35.9214 37.401C35.3619 37.737 34.5786 37.513 34.2429 36.9531C33.9071 36.2812 34.131 35.6094 34.6905 35.2734ZM13.5405 24.4115C13.5405 23.7396 14.1 23.1797 14.7714 23.1797C15.4429 23.1797 16.0024 23.7396 16.0024 24.4115C16.0024 25.0833 15.4429 25.6432 14.7714 25.6432C14.1 25.6432 13.5405 25.0833 13.5405 24.4115ZM40.9571 24.4115C40.9571 23.7396 41.5167 23.1797 42.1881 23.1797C42.8595 23.1797 43.419 23.7396 43.419 24.4115C43.419 25.0833 42.8595 25.6432 42.1881 25.6432C41.5167 25.6432 40.9571 25.0833 40.9571 24.4115ZM28.4238 9.51823C29.0952 9.51823 29.6548 10.0781 29.6548 10.75C29.6548 11.4219 29.0952 11.9818 28.4238 11.9818C27.7524 11.9818 27.1929 11.4219 27.1929 10.75C27.3048 10.0781 27.7524 9.51823 28.4238 9.51823ZM28.4238 36.9531C29.0952 36.9531 29.6548 37.513 29.6548 38.1849C29.6548 38.8568 29.0952 39.4167 28.4238 39.4167C27.7524 39.4167 27.1929 38.8568 27.1929 38.1849C27.3048 37.401 27.7524 36.9531 28.4238 36.9531ZM35.3619 0C36.0333 0 36.5929 0.559896 36.5929 1.23177C36.5929 1.90365 36.0333 2.46354 35.3619 2.46354H16.6738C16.0024 2.46354 15.4429 1.90365 15.4429 1.23177C15.4429 0.559896 15.8905 0 16.5619 0H35.3619ZM4.47619 37.1771H8.28095C8.95238 37.1771 9.5119 36.6172 9.5119 35.9453C9.5119 35.2734 8.95238 34.7135 8.28095 34.7135H4.47619C3.80476 34.7135 3.24524 35.2734 3.24524 35.9453C3.35714 36.6172 3.91667 37.1771 4.47619 37.1771ZM29.6548 16.237C32.2286 16.237 34.3548 18.2526 34.3548 20.9401H32.0048C32.0048 19.5964 30.9976 18.5885 29.6548 18.5885V23.1797H30.1024C32.6762 23.1797 34.8024 25.3073 34.8024 27.8828C34.8024 30.4583 32.6762 32.5859 30.1024 32.5859H29.6548V35.2734H27.3048V32.5859H26.8571C24.2833 32.5859 22.1571 30.4583 22.1571 27.8828H24.5071C24.5071 29.1146 25.5143 30.2344 26.8571 30.2344H27.3048V25.6432C24.7309 25.6432 22.6048 23.6276 22.6048 20.9401C22.6048 18.3646 24.7309 16.237 27.3048 16.237V13.5495H29.6548V16.237ZM29.6548 25.6432H30.1024C31.3333 25.6432 32.4524 26.651 32.4524 27.9948C32.4524 29.2266 31.4452 30.3464 30.1024 30.3464H29.6548V25.6432ZM27.3048 23.1797C25.9619 23.1797 24.9548 22.1719 24.9548 20.8281C24.9548 19.4844 25.9619 18.4766 27.3048 18.4766V23.1797Z" fill="#C8132C"/>
</svg>
