<svg width="16" height="15" viewBox="0 0 16 15" fill="none" xmlns="http://www.w3.org/2000/svg">
<path d="M14.125 9.5L14.5898 10.1836C14.918 10.7305 15.1914 11.2227 15.4102 11.6602C15.7109 12.2617 15.875 12.7266 15.875 13C15.875 13.4922 15.6836 13.9297 15.3555 14.2578C15.0273 14.5859 14.6172 14.75 14.125 14.75C13.6328 14.75 13.1953 14.5859 12.8672 14.2578C12.5391 13.9297 12.375 13.4922 12.375 13C12.375 12.7266 12.5117 12.2617 12.8398 11.6602C13.0312 11.2227 13.3047 10.7305 13.6602 10.1836C13.8242 9.96484 13.9609 9.74609 14.125 9.5ZM13.8789 6.68359C14.043 6.84766 14.125 7.06641 14.125 7.3125C14.125 7.55859 14.043 7.75 13.8789 7.91406L7.80859 13.9844C7.28906 14.5039 6.66016 14.75 5.94922 14.75C5.21094 14.75 4.58203 14.5039 4.08984 13.9844L0.890625 10.7852C0.371094 10.293 0.125 9.66406 0.125 8.92578C0.125 8.21484 0.371094 7.58594 0.890625 7.06641L3.48828 4.46875L1.13672 2.11719C1.02734 2.03516 1 1.92578 1 1.81641C1 1.70703 1.02734 1.59766 1.13672 1.48828L1.73828 0.886719C1.82031 0.804688 1.92969 0.75 2.03906 0.75C2.14844 0.75 2.25781 0.804688 2.36719 0.886719L4.71875 3.23828L6.96094 0.996094C7.125 0.832031 7.31641 0.75 7.5625 0.75C7.80859 0.75 8.02734 0.832031 8.19141 0.996094L13.8789 6.68359ZM10.6797 8.625L12.0195 7.3125L7.5625 2.85547L5.94922 4.46875L7.5625 6.08203C7.72656 6.24609 7.80859 6.46484 7.80859 6.71094C7.80859 6.95703 7.72656 7.14844 7.5625 7.3125C7.39844 7.47656 7.17969 7.55859 6.93359 7.55859C6.6875 7.55859 6.49609 7.47656 6.33203 7.3125L4.71875 5.69922L2.12109 8.29688C2.01172 8.40625 1.95703 8.51562 1.92969 8.625H10.6797Z" fill="#373A3C"/>
</svg>
