<svg width="126" height="84" viewBox="0 0 126 84" fill="none" xmlns="http://www.w3.org/2000/svg">
<path d="M51.4761 27C53.2637 27 54.8828 27.7252 56.0548 28.897V28.9006C57.2263 30.0724 57.9518 31.6909 57.9518 33.4758C57.9518 35.2638 57.2267 36.8833 56.0548 38.0549H56.0513C54.8794 39.2263 53.2614 39.9519 51.4761 39.9519C49.6904 39.9519 48.0725 39.2263 46.9005 38.0549H46.8966C45.7247 36.8833 45 35.2638 45 33.4758C45 31.6909 45.7251 30.0724 46.8966 28.9006V28.897C48.0686 27.7252 49.688 27 51.4761 27ZM54.6478 30.3041L54.6462 30.3056C53.8351 29.4948 52.7138 28.9928 51.4761 28.9928C50.238 28.9928 49.1163 29.4948 48.3055 30.3056L48.304 30.3041C47.4941 31.1148 46.9928 32.2361 46.9928 33.4758C46.9928 34.7138 47.4945 35.8351 48.3055 36.6463L48.304 36.6479C49.1144 37.4578 50.236 37.9591 51.4761 37.9591C52.7157 37.9591 53.837 37.4578 54.6478 36.6479L54.6462 36.6463C55.457 35.8351 55.9586 34.7138 55.9586 33.4758C55.9586 32.2361 55.4574 31.1148 54.6478 30.3041Z" fill="#FF238D"/>
<path d="M67.9624 41C69.3324 41 70.5728 41.5558 71.4708 42.4537C72.3687 43.3516 72.9245 44.5925 72.9245 45.9625C72.9245 47.3321 72.3687 48.5729 71.4708 49.4709C70.5728 50.3687 69.3324 50.9245 67.9624 50.9245C66.5924 50.9245 65.3516 50.3687 64.4536 49.4709C63.5562 48.5729 63 47.3321 63 45.9625C63 44.5925 63.5562 43.3516 64.4536 42.4537C65.3516 41.5558 66.5924 41 67.9624 41ZM70.0622 43.8622C69.5251 43.3252 68.7825 42.9928 67.9624 42.9928C67.1424 42.9928 66.3998 43.3252 65.8626 43.8622C65.3255 44.3998 64.9928 45.142 64.9928 45.9625C64.9928 46.7825 65.3255 47.5247 65.8626 48.0619C66.3998 48.5993 67.1428 48.9313 67.9624 48.9313C68.7825 48.9313 69.5251 48.5993 70.0622 48.0619C70.5993 47.5247 70.9317 46.7825 70.9317 45.9625C70.9317 45.1424 70.5993 44.3998 70.0622 43.8622Z" fill="#FF238D"/>
<path d="M56.0315 48C57.1414 48 58.1492 48.4514 58.8785 49.1808L58.8824 49.1847C59.6115 49.9141 60.0633 50.921 60.0633 52.0318C60.0633 53.1414 59.6115 54.1491 58.8824 54.8785L58.8785 54.882C58.1492 55.6114 57.1414 56.0632 56.0315 56.0632C54.921 56.0632 53.9142 55.6114 53.1848 54.882L53.1808 54.8785C52.4519 54.1491 52 53.1414 52 52.0318C52 50.921 52.4519 49.9141 53.1808 49.1847L53.1848 49.1808C53.9142 48.4514 54.921 48 56.0315 48ZM57.4754 50.5878C57.1065 50.2204 56.5962 49.9928 56.0315 49.9928C55.4671 49.9928 54.9565 50.2204 54.5879 50.5878C54.2208 50.9564 53.9932 51.467 53.9932 52.0318C53.9932 52.5962 54.2208 53.1065 54.5879 53.475C54.9565 53.8424 55.4671 54.0701 56.0315 54.0701C56.5962 54.0701 57.1065 53.8424 57.4754 53.475C57.8425 53.1065 58.0702 52.5962 58.0702 52.0318C58.0702 51.467 57.8425 50.9564 57.4754 50.5878Z" fill="#FF238D"/>
<path d="M59.4713 13C60.7051 13 61.8232 13.5005 62.6321 14.3098C63.4413 15.1185 63.9418 16.2363 63.9418 17.4705C63.9418 18.7023 63.4413 19.819 62.6321 20.6282V20.6321C61.8232 21.4409 60.7051 21.9418 59.4713 21.9418C58.2367 21.9418 57.1185 21.4409 56.3097 20.6321V20.6282C55.5005 19.819 55 18.7023 55 17.4705C55 16.2363 55.5005 15.1185 56.3097 14.3098H56.3136C57.1224 13.5005 58.2394 13 59.4713 13ZM61.2235 15.7183C60.7751 15.2707 60.1551 14.9928 59.4713 14.9928C58.7851 14.9928 58.1651 15.2691 57.7167 15.7168L57.7186 15.7183C57.2707 16.1662 56.9928 16.7863 56.9928 17.4705C56.9928 18.1567 57.2695 18.7768 57.7167 19.2251L57.7186 19.2231C58.1666 19.6711 58.7867 19.949 59.4713 19.949C60.1555 19.949 60.7751 19.6711 61.2235 19.2231L61.2251 19.2251C61.6723 18.7768 61.949 18.1567 61.949 17.4705C61.949 16.7863 61.6711 16.1662 61.2235 15.7183Z" fill="#FF238D"/>
<path d="M90.0971 27C90.2446 27.3736 90.3571 27.7644 90.4334 28.1661C90.51 28.5705 90.5494 28.9744 90.5494 29.3719C90.5494 31.1599 89.8243 32.7794 88.6524 33.951H88.6489C87.4769 35.1228 85.859 35.848 84.0737 35.848C82.72 35.848 81.4363 35.4256 80.3742 34.6865C79.3128 33.9474 78.4709 32.8884 78 31.6164L79.869 30.9314C80.1931 31.8087 80.7758 32.54 81.5111 33.0514C82.2451 33.5629 83.1349 33.8552 84.0737 33.8552C85.3133 33.8552 86.435 33.3538 87.2454 32.544L87.2438 32.5424C88.0545 31.7316 88.5566 30.6099 88.5566 29.3719C88.5566 29.0815 88.5305 28.8005 88.4796 28.5319C88.4282 28.2614 88.3491 27.9901 88.2444 27.7243L90.0971 27Z" fill="#FF238D"/>
<path d="M94.8893 25.1047C95.5867 26.887 96.1136 28.7226 96.4661 30.5873C96.8204 32.4629 97 34.3624 97 36.2604C97 38.9822 96.6411 41.6292 95.9675 44.1573C95.2741 46.7589 94.2448 49.2305 92.9285 51.5239L91.1941 50.5484C92.4246 48.4037 93.388 46.0905 94.0376 43.6534C94.6651 41.2981 94.9994 38.8199 94.9994 36.2604C94.9994 34.467 94.833 32.6894 94.5049 30.9514C94.1744 29.2016 93.6806 27.4821 93.0298 25.8174L94.8893 25.1047ZM59.1772 67C54.8335 66.2197 50.7956 64.5815 47.2563 62.2729C43.6392 59.9141 40.5428 56.857 38.1715 53.3019L39.8358 52.2097C42.0625 55.5484 44.9647 58.4154 48.3501 60.6232C51.6688 62.7877 55.455 64.324 59.5289 65.0559L59.1772 67ZM33.5637 42.1233C33.3805 41.1796 33.2395 40.2079 33.1441 39.2098C33.0492 38.2154 33 37.2306 33 36.2604C33 27.6278 36.5851 19.8111 42.3801 14.1523C48.1716 8.4978 56.1696 5 65.0001 5C66.6611 5 68.3175 5.1266 69.9536 5.37683C71.5877 5.62696 73.2051 6.00221 74.788 6.49871L74.1863 8.38904C72.7038 7.92387 71.1861 7.57181 69.6488 7.33675C68.1132 7.10208 66.5588 6.98321 65.0001 6.98321C56.7102 6.98321 49.2073 10.2614 43.779 15.562C38.3556 20.8579 35.0002 28.1758 35.0002 36.2604C35.0002 37.2166 35.044 38.1387 35.1287 39.024C35.2158 39.9337 35.349 40.8442 35.5248 41.7511L33.5637 42.1233Z" fill="#FF238D"/>
<path d="M56.4159 72C52.9371 71.1846 49.644 69.8815 46.6165 68.1689C43.5336 66.4246 40.7289 64.2545 38.2872 61.7417L39.7175 60.3506C42.029 62.7299 44.6837 64.7836 47.6009 66.434C50.4568 68.0497 53.571 69.2805 56.8692 70.0534L56.4159 72ZM28.4717 42.3201C28.3146 41.352 28.1954 40.3833 28.118 39.419C28.0399 38.4476 28 37.472 28 36.4943C28 26.4168 32.1444 17.2913 38.8448 10.6851C45.5406 4.08325 54.7883 -3.84649e-06 64.9997 -3.84649e-06C66.8931 -3.84649e-06 68.7829 0.143836 70.6516 0.428715C72.5157 0.713098 74.3618 1.13942 76.1728 1.70518L77.1337 2.00606L76.8254 2.96373L66.5823 34.8298L98.268 22.8701L99.1911 22.522L99.55 23.4449C100.358 25.5291 100.972 27.6766 101.381 29.8581C101.791 32.0505 102 34.2726 102 36.4943C102 39.4061 101.65 42.2483 100.991 44.9811C100.312 47.7878 99.3064 50.4685 98.0148 52.9802L96.241 52.0659C97.4618 49.6918 98.4122 47.1598 99.0516 44.5118C99.671 41.9486 99.9992 39.2639 99.9992 36.4943C99.9992 34.3785 99.8031 32.2795 99.4189 30.2257C99.0918 28.483 98.6291 26.7665 98.0343 25.0919L65.3514 37.4282L63.4174 38.1585L64.0501 36.1892L74.6139 3.32593C73.216 2.93292 71.7931 2.62544 70.3546 2.40617C68.5875 2.1366 66.7969 2.00056 64.9997 2.00056C55.33 2.00056 46.5774 5.86305 40.2439 12.1074C33.9154 18.347 30.0008 26.9694 30.0008 36.4943C30.0008 37.4329 30.0384 38.3562 30.1111 39.2623C30.1865 40.1992 30.2975 41.1124 30.4416 41.9997L28.4717 42.3201Z" fill="#0066FF"/>
<path d="M54 76.6094C55.7756 68.822 60.0756 62.1703 65.8978 57.4663C71.7236 52.7592 79.0715 50 86.9375 50C94.8054 50 102.154 52.76 107.979 57.4683C113.802 62.1742 118.102 68.8274 119.876 76.6164L117.937 77.0523C116.266 69.7153 112.217 63.4485 106.734 59.0173C101.255 54.5888 94.3411 51.9928 86.9375 51.9928C79.5354 51.9928 72.6226 54.5881 67.1433 59.0154C61.6609 63.445 57.6111 69.7098 55.9387 77.0453L54 76.6094Z" fill="#0066FF"/>
<path d="M50.3855 76.0153H123.671C124.291 76.0153 124.86 76.2481 125.279 76.6236L125.277 76.6256C125.723 77.0269 126 77.5873 126 78.2074C126 78.8274 125.723 79.3878 125.277 79.7895L125.279 79.7915C124.868 80.16 124.311 80.3912 123.704 80.3994C122.273 80.8832 121.61 81.4701 121.006 82.0033C119.791 83.0768 118.762 83.9864 114.56 83.9864H59.4969C55.2954 83.9864 54.2659 83.0768 53.0512 82.0033C52.4475 81.4701 51.7839 80.8832 50.3524 80.3994C49.7464 80.3912 49.1898 80.16 48.7792 79.7915L48.7808 79.7895C48.3343 79.3878 48.0573 78.8274 48.0573 78.2074C48.0573 77.5873 48.3343 77.0269 48.7808 76.6256L48.7792 76.6236C49.1968 76.2481 49.7666 76.0153 50.3855 76.0153ZM123.671 78.0081H50.3855C50.2726 78.0081 50.1754 78.0443 50.1103 78.1023H50.1064C50.0718 78.1334 50.05 78.1715 50.05 78.2074C50.05 78.2436 50.0722 78.2813 50.1064 78.3124H50.1103C50.1754 78.3704 50.2726 78.407 50.3855 78.407H50.5035H50.6501L50.8074 78.4576C52.7376 79.0765 53.5919 79.8319 54.3672 80.5166C55.2717 81.316 56.0384 81.9936 59.4969 81.9936H114.56C118.019 81.9936 118.786 81.316 119.691 80.5166C120.466 79.8319 121.32 79.0765 123.25 78.4576L123.407 78.407H123.554H123.671C123.785 78.407 123.882 78.3704 123.946 78.3124H123.95C123.985 78.2813 124.007 78.2436 124.007 78.2074C124.007 78.1715 123.985 78.1334 123.95 78.1023H123.946C123.882 78.0443 123.785 78.0081 123.671 78.0081Z" fill="#0066FF"/>
<path d="M86.9696 40C88.066 40 89.0589 40.4449 89.777 41.163C90.4951 41.8815 90.9396 42.874 90.9396 43.97C90.9396 45.0656 90.4951 46.0585 89.777 46.777C89.0589 47.4951 88.066 47.9396 86.9696 47.9396C85.874 47.9396 84.8811 47.4951 84.163 46.777C83.4445 46.0585 83 45.0656 83 43.97C83 42.874 83.4445 41.8815 84.163 41.163C84.8811 40.4449 85.874 40 86.9696 40ZM88.368 42.572C88.0107 42.2147 87.5161 41.9932 86.9696 41.9932C86.424 41.9932 85.9289 42.2147 85.5716 42.572C85.2143 42.9292 84.9928 43.4239 84.9928 43.97C84.9928 44.5156 85.2143 45.0107 85.5716 45.368C85.9289 45.7253 86.424 45.9468 86.9696 45.9468C87.5161 45.9468 88.0107 45.7253 88.368 45.368C88.7253 45.0107 88.9468 44.5156 88.9468 43.97C88.9468 43.4239 88.7253 42.9292 88.368 42.572Z" fill="#0066FF"/>
<path d="M87.9932 47V50.8894H86V47H87.9932Z" fill="#0066FF"/>
<path d="M19.7841 42.39L17.4683 23.8627C17.3145 22.6359 16.9681 21.8427 16.4123 21.3406C15.8375 20.8218 14.9738 20.5408 13.8248 20.3676L0 18.2814L0.295802 16.312L14.121 18.3982C15.6444 18.6278 16.8378 19.0443 17.7438 19.8621C18.6686 20.6965 19.2275 21.8824 19.4451 23.6214L21.7613 42.1491L19.7841 42.39Z" fill="#FF238D"/>
<path d="M38.906 42.9928H13V41H38.906V42.9928Z" fill="#0066FF"/>
<path fill-rule="evenodd" clip-rule="evenodd" d="M19.4946 49C20.3197 49 20.9888 49.6691 20.9888 50.4942C20.9888 51.3197 20.3197 51.9888 19.4946 51.9888C18.6691 51.9888 18 51.3197 18 50.4942C18 49.6691 18.6691 49 19.4946 49Z" fill="#0066FF"/>
<path fill-rule="evenodd" clip-rule="evenodd" d="M26.024 52C27.1418 52 28.0478 52.9061 28.0478 54.0239C28.0478 55.1417 27.1418 56.0478 26.024 56.0478C24.9061 56.0478 24 55.1417 24 54.0239C24 52.9061 24.9061 52 26.024 52Z" fill="#0066FF"/>
<path fill-rule="evenodd" clip-rule="evenodd" d="M31.4942 58C32.3198 58 32.9888 58.6691 32.9888 59.4942C32.9888 60.3197 32.3198 60.9888 31.4942 60.9888C30.6691 60.9888 30 60.3197 30 59.4942C30 58.6691 30.6691 58 31.4942 58Z" fill="#0066FF"/>
<path fill-rule="evenodd" clip-rule="evenodd" d="M32.0239 45C33.1417 45 34.0478 45.9061 34.0478 47.0239C34.0478 48.1417 33.1417 49.0478 32.0239 49.0478C30.9065 49.0478 30 48.1417 30 47.0239C30 45.9061 30.9065 45 32.0239 45Z" fill="#0066FF"/>
<path fill-rule="evenodd" clip-rule="evenodd" d="M22.4942 45C23.3197 45 23.9888 45.6691 23.9888 46.4942C23.9888 47.3193 23.3197 47.9888 22.4942 47.9888C21.6691 47.9888 21 47.3193 21 46.4942C21 45.6691 21.6691 45 22.4942 45Z" fill="#0066FF"/>
<path d="M14.0003 33V77.875C14.0003 79.0078 14.4652 80.0395 15.2128 80.7871C15.9609 81.5352 16.9921 82 18.1248 82H33.8752C35.0079 82 36.04 81.5352 36.7872 80.7875C37.5353 80.0399 37.9997 79.0086 37.9997 77.875V33H14.0003ZM12 77.875V31H40V77.875C40 79.5606 39.3106 81.0918 38.2013 82.2016C37.0919 83.3109 35.5599 84 33.8752 84H18.1248C16.4402 84 14.9085 83.3106 13.7991 82.2012C12.6895 81.0918 12 79.5598 12 77.875Z" fill="#0066FF"/>
</svg>
