<svg width="34" height="34" viewBox="0 0 34 34" fill="none" xmlns="http://www.w3.org/2000/svg">
<rect width="34" height="34" rx="4" fill="url(#paint0_radial)"/>
<rect width="34" height="34" rx="4" fill="url(#paint1_radial)"/>
<path d="M13.0006 17C13.0006 14.7909 14.7909 12.9997 17 12.9997C19.2091 12.9997 21.0003 14.7909 21.0003 17C21.0003 19.2091 19.2091 21.0003 17 21.0003C14.7909 21.0003 13.0006 19.2091 13.0006 17ZM10.8381 17C10.8381 20.4032 13.5968 23.1619 17 23.1619C20.4032 23.1619 23.1619 20.4032 23.1619 17C23.1619 13.5968 20.4032 10.8381 17 10.8381C13.5968 10.8381 10.8382 13.5966 10.8382 17H10.8381ZM21.9659 10.5938C21.9658 10.8786 22.0501 11.1571 22.2083 11.3939C22.3664 11.6308 22.5912 11.8155 22.8543 11.9246C23.1174 12.0337 23.4069 12.0623 23.6863 12.0068C23.9656 11.9514 24.2222 11.8143 24.4237 11.613C24.6252 11.4117 24.7624 11.1552 24.8181 10.8759C24.8738 10.5966 24.8454 10.307 24.7365 10.0439C24.6276 9.7807 24.4431 9.55573 24.2064 9.3974C23.9696 9.23908 23.6913 9.15451 23.4065 9.1544H23.4059C23.0241 9.15458 22.6581 9.30627 22.3881 9.57616C22.1181 9.84605 21.9662 10.2121 21.9659 10.5938ZM12.152 26.7678C10.982 26.7145 10.3461 26.5196 9.92355 26.355C9.3633 26.1369 8.96355 25.8771 8.54326 25.4574C8.12298 25.0377 7.86282 24.6383 7.64566 24.0781C7.48093 23.6557 7.28605 23.0196 7.23286 21.8496C7.17469 20.5847 7.16307 20.2048 7.16307 17.0002C7.16307 13.7956 7.17565 13.4167 7.23286 12.1508C7.28614 10.9808 7.48246 10.346 7.64566 9.9223C7.86378 9.36205 8.12355 8.9623 8.54326 8.54202C8.96298 8.12173 9.36234 7.86157 9.92355 7.64442C10.346 7.47968 10.982 7.2848 12.152 7.23162C13.4169 7.17344 13.7969 7.16182 17 7.16182C20.2031 7.16182 20.5835 7.17421 21.8494 7.23181C23.0194 7.28509 23.6542 7.48141 24.0779 7.64461C24.6381 7.86176 25.0379 8.1225 25.4582 8.54221C25.8785 8.96192 26.1377 9.36224 26.3558 9.9225C26.5205 10.3449 26.7154 10.981 26.7686 12.1509C26.8267 13.4169 26.8384 13.7958 26.8384 17.0004C26.8384 20.205 26.8267 20.5839 26.7686 21.8498C26.7153 23.0198 26.5195 23.6557 26.3558 24.0783C26.1377 24.6385 25.8779 25.0383 25.4582 25.4576C25.0385 25.8769 24.6381 26.1371 24.0779 26.3552C23.6555 26.5199 23.0194 26.7148 21.8494 26.768C20.5845 26.8262 20.2046 26.8378 17 26.8378C13.7954 26.8378 13.4165 26.8262 12.152 26.768V26.7678ZM12.0526 5.07267C10.7752 5.13085 9.90224 5.33341 9.1399 5.63005C8.35088 5.93638 7.68205 6.34736 7.01418 7.01418C6.3463 7.68099 5.93638 8.34992 5.63005 9.1399C5.33341 9.90272 5.13085 10.7752 5.07267 12.0526C5.01354 13.3321 5 13.7412 5 17C5 20.2588 5.01354 20.6679 5.07267 21.9474C5.13085 23.2249 5.33341 24.0973 5.63005 24.8601C5.93638 25.6491 6.3464 26.3193 7.01418 26.9858C7.68195 27.6524 8.34992 28.0628 9.1399 28.37C9.90368 28.6666 10.7752 28.8692 12.0526 28.9273C13.3328 28.9855 13.7412 29 17 29C20.2588 29 20.6679 28.9865 21.9474 28.9273C23.2249 28.8692 24.0973 28.6666 24.8601 28.37C25.6491 28.0628 26.318 27.6526 26.9858 26.9858C27.6537 26.319 28.0627 25.6491 28.3699 24.8601C28.6666 24.0973 28.8701 23.2248 28.9273 21.9474C28.9855 20.6669 28.999 20.2588 28.999 17C28.999 13.7412 28.9855 13.3321 28.9273 12.0526C28.8692 10.7751 28.6666 9.90224 28.3699 9.1399C28.0627 8.35088 27.6526 7.68205 26.9858 7.01418C26.319 6.3463 25.6491 5.93638 24.8611 5.63005C24.0973 5.33341 23.2248 5.12989 21.9483 5.07267C20.6686 5.01421 20.2598 5 17.0014 5C13.7431 5 13.3333 5.01354 12.0531 5.07267" fill="white"/>
<defs>
<radialGradient id="paint0_radial" cx="0" cy="0" r="1" gradientUnits="userSpaceOnUse" gradientTransform="translate(2.20045 33.2552) scale(43.1674)">
<stop offset="0.09" stop-color="#FA8F21"/>
<stop offset="0.78" stop-color="#D82D7E"/>
</radialGradient>
<radialGradient id="paint1_radial" cx="0" cy="0" r="1" gradientUnits="userSpaceOnUse" gradientTransform="translate(23.5506 32.1634) scale(37.9877)">
<stop offset="0.64" stop-color="#8C3AAA" stop-opacity="0"/>
<stop offset="1" stop-color="#8C3AAA"/>
</radialGradient>
</defs>
</svg>
