<svg width="34" height="34" viewBox="0 0 34 34" fill="none" xmlns="http://www.w3.org/2000/svg">
<rect width="34" height="34" rx="4" fill="#0077B5"/>
<path d="M11.526 26H7.39686V12.6666H11.526V26ZM9.44175 10.9205C8.09322 10.9205 7 9.81896 7 8.46031C7 7.10151 8.09337 6 9.44175 6C10.7901 6 11.8834 7.10151 11.8834 8.46031C11.8834 9.81903 10.7902 10.9205 9.44175 10.9205ZM26.9999 26H22.8908V19.0011C22.8908 17.0815 22.1613 16.01 20.6426 16.01C18.9899 16.01 18.1264 17.126 18.1264 19.0011V26H14.1661V12.6666H18.1264V14.4624C18.1264 14.4624 19.3177 12.2599 22.1463 12.2599C24.9751 12.2599 27 13.9863 27 17.5575L26.9999 26Z" fill="white"/>
</svg>
