<svg width="34" height="34" viewBox="0 0 34 34" fill="none" xmlns="http://www.w3.org/2000/svg">
<rect width="34" height="34" rx="4" fill="#ED812B"/>
<path d="M17.0074 17.3542C19.9641 17.3532 22.359 14.81 22.358 11.6751C22.3571 8.53911 19.9593 5.99899 17.0036 6C14.0479 6.00101 11.6521 8.54417 11.653 11.6791C11.6569 14.8131 14.0527 17.3522 17.0074 17.3542ZM17.0074 9.32816C18.2321 9.32816 19.2249 10.3812 19.2249 11.6801C19.2249 12.979 18.2321 14.0311 17.0074 14.0311C15.7828 14.0311 14.7899 12.978 14.7899 11.6791C14.7919 10.3812 15.7838 9.32917 17.0074 9.32816ZM19.1715 21.9863C20.2731 21.7213 21.3241 21.259 22.2808 20.6206C23.0094 20.1219 23.2193 19.0921 22.7491 18.3193C22.2865 17.5585 21.3346 17.3289 20.6079 17.8033C18.4037 19.2651 15.6054 19.2651 13.4013 17.8033C12.6697 17.3168 11.7036 17.5494 11.2429 18.3243C10.7803 19.1002 10.9978 20.128 11.7303 20.6186C11.7312 20.6186 11.7322 20.6196 11.7322 20.6196C12.6879 21.2569 13.7389 21.7192 14.8395 21.9853L11.8466 25.1597C11.2506 25.8273 11.2782 26.8814 11.9086 27.5137C12.5143 28.1206 13.4604 28.1206 14.066 27.5137L17.0055 24.3939L19.9469 27.5137C20.5592 28.1621 21.5502 28.1621 22.1625 27.5137C22.7739 26.8642 22.7739 25.8132 22.1625 25.1637L19.1715 21.9863Z" fill="white"/>
</svg>
