<svg width="34" height="34" viewBox="0 0 34 34" fill="none" xmlns="http://www.w3.org/2000/svg">
<rect width="34" height="34" rx="4" fill="black"/>
<path d="M15.5592 14.1317V13.2739C15.2612 13.2268 14.9602 13.2011 14.6585 13.1969C11.7381 13.1911 9.15327 15.081 8.27605 17.8628C7.39884 20.6446 8.43413 23.674 10.8306 25.3398C8.31606 22.6515 8.4595 18.4359 11.1507 15.9241C12.3498 14.8059 13.9191 14.1679 15.5592 14.1317Z" fill="#25F4EE"/>
<path d="M15.7211 23.8435C17.3536 23.8416 18.6953 22.5569 18.7675 20.9272V6.38753H21.4264C21.3721 6.0839 21.3462 5.77585 21.3494 5.46741H17.7127V19.9924C17.6522 21.6299 16.3066 22.9273 14.6663 22.9302C14.1765 22.9263 13.6935 22.8054 13.2593 22.5793C13.5408 22.9689 13.9106 23.2866 14.3385 23.5063C14.7663 23.726 15.2401 23.8415 15.7211 23.8435ZM26.3921 11.3205V10.5125C25.4134 10.5125 24.4562 10.224 23.6414 9.683C24.3556 10.5131 25.3213 11.088 26.3921 11.3205Z" fill="#25F4EE"/>
<path d="M23.6424 9.68389C22.8392 8.77059 22.3966 7.59628 22.3974 6.38062H21.4265C21.5515 7.05283 21.8125 7.69249 22.1935 8.26047C22.5745 8.82845 23.0676 9.3128 23.6424 9.68389ZM14.6586 16.8304C12.9724 16.8392 11.6122 18.2116 11.621 19.8959C11.6238 20.4488 11.777 20.9905 12.0642 21.4631C12.3514 21.9358 12.7618 22.3216 13.2515 22.5792C12.265 21.2185 12.5695 19.3159 13.9316 18.3295C14.4521 17.953 15.0785 17.7506 15.7212 17.7515C16.0266 17.7554 16.3301 17.8032 16.6218 17.8928V14.1958C16.3242 14.151 16.0227 14.1276 15.7212 14.1256H15.5592V16.9367C15.2655 16.8567 14.962 16.8216 14.6586 16.8304Z" fill="#FE2C55"/>
<path d="M26.3921 11.3203V14.1314C24.5805 14.1279 22.8159 13.555 21.3484 12.4939V19.8792C21.3405 23.5646 18.3479 26.5481 14.6585 26.5481C13.2883 26.5507 11.9512 26.1284 10.8315 25.3395C13.3422 28.0365 17.5663 28.1905 20.2672 25.6826C20.9391 25.0587 21.475 24.3032 21.8415 23.4631C22.208 22.6231 22.3972 21.7166 22.3973 20.8003V13.4354C23.8699 14.4891 25.6365 15.0543 27.4479 15.0515V11.4334C27.0927 11.4314 26.7395 11.3944 26.3921 11.3203Z" fill="#FE2C55"/>
<path d="M21.3483 19.8803V12.4949C22.8205 13.5494 24.5874 14.1148 26.3989 14.111V11.2999C25.3287 11.0739 24.361 10.5068 23.6414 9.68389C23.0668 9.3125 22.5739 8.82806 22.193 8.26013C21.812 7.69221 21.5508 7.05269 21.4254 6.38062H18.7664V20.9271C18.6972 22.6104 17.2764 23.9185 15.5913 23.8502C15.1303 23.8316 14.6795 23.7087 14.2729 23.4909C13.8662 23.2731 13.5143 22.9661 13.2436 22.5929C11.7517 21.8082 11.1789 19.9641 11.9644 18.4738C12.2222 17.9844 12.6083 17.5744 13.0815 17.2875C13.5547 17.0006 14.0971 16.8476 14.6507 16.845C14.9561 16.848 15.2595 16.8948 15.5513 16.9854V14.1324C11.8688 14.1948 8.93365 17.27 8.9961 20.9486C9.02434 22.6144 9.67641 24.2092 10.8237 25.4185C11.9543 26.1814 13.2933 26.5767 14.6575 26.5502C18.3478 26.5492 21.3405 23.5656 21.3483 19.8803Z" fill="white"/>
</svg>
