<svg width="34" height="34" viewBox="0 0 34 34" fill="none" xmlns="http://www.w3.org/2000/svg">
<rect width="34" height="34" rx="4" fill="#45668E"/>
<path fill-rule="evenodd" clip-rule="evenodd" d="M27.4935 10.8858C27.6482 10.3647 27.4935 10 26.7713 10H24.364C23.745 10 23.4699 10.33 23.3151 10.6947C23.3151 10.6947 22.0943 13.7168 20.3576 15.6621C19.7902 16.2353 19.5495 16.4089 19.24 16.4089C19.0852 16.4089 18.8617 16.2353 18.8617 15.7142V10.8858C18.8617 10.2605 18.6897 10 18.1739 10H14.391C14.0128 10 13.772 10.2953 13.772 10.5558C13.772 11.1463 14.6318 11.2853 14.7349 12.9179V16.4958C14.7349 17.2774 14.5974 17.4163 14.2879 17.4163C13.4797 17.4163 11.4851 14.3942 10.3159 10.9205C10.0752 10.2779 9.85163 10 9.23262 10H6.82535C6.13756 10 6 10.33 6 10.6947C6 11.3374 6.80815 14.5332 9.80004 18.7537C11.7946 21.6368 14.5974 23.2 17.1422 23.2C18.6725 23.2 18.8617 22.8526 18.8617 22.2621V20.0737C18.8617 19.3789 18.9992 19.24 19.4979 19.24C19.859 19.24 20.4608 19.4137 21.888 20.8032C23.5215 22.4532 23.7966 23.2 24.7079 23.2H27.1152C27.803 23.2 28.1469 22.8526 27.9405 22.1753C27.717 21.4979 26.9432 20.5079 25.9115 19.3268C25.3441 18.6495 24.5016 17.9374 24.2608 17.5726C23.8998 17.1037 24.0029 16.8953 24.2608 16.4958C24.2608 16.4784 27.2012 12.31 27.4935 10.8858Z" fill="white"/>
</svg>
