<svg width="34" height="34" viewBox="0 0 34 34" fill="none" xmlns="http://www.w3.org/2000/svg">
<rect width="34" height="34" rx="4" fill="#FF0000"/>
<path d="M17.4547 24.979L12.9411 24.8922C11.4797 24.862 10.0147 24.9224 8.58199 24.6091C6.40248 24.1409 6.24807 21.8456 6.0865 19.9203C5.86388 17.2135 5.95006 14.4576 6.37018 11.7735C6.60736 10.2674 7.54073 9.36865 8.98415 9.27085C13.8568 8.91594 18.7618 8.958 23.6236 9.12358C24.1371 9.13876 24.6541 9.22172 25.1604 9.31616C27.6596 9.77675 27.7205 12.3778 27.8825 14.5675C28.0441 16.7797 27.9759 19.0033 27.6671 21.2005C27.4193 23.0196 26.9453 24.5452 24.9449 24.6925C22.4385 24.8851 19.9896 25.0401 17.4762 24.9907C17.4763 24.979 17.4618 24.979 17.4547 24.979ZM14.8012 20.3734C16.6899 19.2332 18.5427 18.112 20.4207 16.9795C18.5283 15.8393 16.6791 14.7181 14.8012 13.5856V20.3734Z" fill="white"/>
</svg>
