<svg width="141" height="28" viewBox="0 0 141 28" fill="none" xmlns="http://www.w3.org/2000/svg">
<g clip-path="url(#clip0)">
<path d="M55.2373 4.70024C56.7973 4.70024 58.1473 4.92024 59.2873 5.36024C60.4473 5.80024 61.4973 6.47024 62.4373 7.37024L60.1573 10.0402C58.7373 8.88024 57.2173 8.30024 55.5973 8.30024C54.7373 8.30024 54.0573 8.48024 53.5573 8.84024C53.0573 9.18024 52.8073 9.68024 52.8073 10.3402C52.8073 10.8002 52.9173 11.1802 53.1373 11.4802C53.3573 11.7602 53.7473 12.0302 54.3073 12.2902C54.8673 12.5502 55.7073 12.8602 56.8273 13.2202C58.9473 13.9002 60.5073 14.7402 61.5073 15.7402C62.5073 16.7202 63.0073 18.1202 63.0073 19.9402C63.0073 21.2402 62.6773 22.3902 62.0173 23.3902C61.3573 24.3702 60.4073 25.1402 59.1673 25.7002C57.9273 26.2402 56.4573 26.5102 54.7573 26.5102C53.0573 26.5102 51.5473 26.2402 50.2273 25.7002C48.9273 25.1602 47.8073 24.4402 46.8673 23.5402L49.3573 20.8102C50.1573 21.4902 50.9773 22.0002 51.8173 22.3402C52.6773 22.6802 53.6073 22.8502 54.6073 22.8502C55.6273 22.8502 56.4273 22.6302 57.0073 22.1902C57.6073 21.7302 57.9073 21.1002 57.9073 20.3002C57.9073 19.7802 57.7973 19.3502 57.5773 19.0102C57.3573 18.6502 56.9773 18.3302 56.4373 18.0502C55.8973 17.7702 55.1173 17.4702 54.0973 17.1502C51.7973 16.4502 50.1573 15.5902 49.1773 14.5702C48.2173 13.5502 47.7373 12.2602 47.7373 10.7002C47.7373 9.50024 48.0573 8.45024 48.6973 7.55024C49.3373 6.63024 50.2273 5.93024 51.3673 5.45024C52.5073 4.95024 53.7973 4.70024 55.2373 4.70024ZM78.2853 21.3802C78.2853 21.9802 78.3653 22.4202 78.5253 22.7002C78.7053 22.9802 78.9853 23.1902 79.3653 23.3302L78.3753 26.4202C77.3953 26.3402 76.5953 26.1302 75.9753 25.7902C75.3553 25.4302 74.8753 24.8702 74.5353 24.1102C73.4953 25.7102 71.8953 26.5102 69.7353 26.5102C68.1553 26.5102 66.8953 26.0502 65.9553 25.1302C65.0153 24.2102 64.5453 23.0102 64.5453 21.5302C64.5453 19.7902 65.1853 18.4602 66.4653 17.5402C67.7453 16.6202 69.5953 16.1602 72.0153 16.1602H73.6353V15.4702C73.6353 14.5302 73.4353 13.8902 73.0353 13.5502C72.6353 13.1902 71.9353 13.0102 70.9353 13.0102C70.4153 13.0102 69.7853 13.0902 69.0453 13.2502C68.3053 13.3902 67.5453 13.5902 66.7653 13.8502L65.6853 10.7302C66.6853 10.3502 67.7053 10.0602 68.7453 9.86024C69.8053 9.66024 70.7853 9.56024 71.6853 9.56024C73.9653 9.56024 75.6353 10.0302 76.6953 10.9702C77.7553 11.9102 78.2853 13.3202 78.2853 15.2002V21.3802ZM71.1153 23.1202C72.1953 23.1202 73.0353 22.6102 73.6353 21.5902V18.7702H72.4653C71.3853 18.7702 70.5753 18.9602 70.0353 19.3402C69.5153 19.7202 69.2553 20.3102 69.2553 21.1102C69.2553 21.7502 69.4153 22.2502 69.7353 22.6102C70.0753 22.9502 70.5353 23.1202 71.1153 23.1202ZM86.8008 3.23024V26.0002H82.0608V3.74024L86.8008 3.23024ZM96.6408 10.0702L91.8108 17.0602L97.0308 26.0002H91.6908L86.9508 17.3002L91.8108 10.0702H96.6408ZM111.79 26.0002H107.68L107.47 23.9902C106.31 25.6702 104.7 26.5102 102.64 26.5102C101.18 26.5102 100.07 26.0702 99.3099 25.1902C98.5699 24.3102 98.1999 23.0802 98.1999 21.5002V10.0702H102.94V20.9002C102.94 21.6802 103.06 22.2302 103.3 22.5502C103.56 22.8502 103.95 23.0002 104.47 23.0002C105.47 23.0002 106.33 22.3802 107.05 21.1402V10.0702H111.79V26.0002ZM124.158 9.62024C124.738 9.62024 125.268 9.69024 125.748 9.83024L124.998 14.4202C124.398 14.2802 123.918 14.2102 123.558 14.2102C122.618 14.2102 121.898 14.5402 121.398 15.2002C120.918 15.8402 120.538 16.8102 120.258 18.1102V26.0002H115.518V10.0702H119.658L120.048 13.1602C120.408 12.0602 120.948 11.2002 121.668 10.5802C122.408 9.94024 123.238 9.62024 124.158 9.62024ZM139.164 21.3802C139.164 21.9802 139.244 22.4202 139.404 22.7002C139.584 22.9802 139.864 23.1902 140.244 23.3302L139.254 26.4202C138.274 26.3402 137.474 26.1302 136.854 25.7902C136.234 25.4302 135.754 24.8702 135.414 24.1102C134.374 25.7102 132.774 26.5102 130.614 26.5102C129.034 26.5102 127.774 26.0502 126.834 25.1302C125.894 24.2102 125.424 23.0102 125.424 21.5302C125.424 19.7902 126.064 18.4602 127.344 17.5402C128.624 16.6202 130.474 16.1602 132.894 16.1602H134.514V15.4702C134.514 14.5302 134.314 13.8902 133.914 13.5502C133.514 13.1902 132.814 13.0102 131.814 13.0102C131.294 13.0102 130.664 13.0902 129.924 13.2502C129.184 13.3902 128.424 13.5902 127.644 13.8502L126.564 10.7302C127.564 10.3502 128.584 10.0602 129.624 9.86024C130.684 9.66024 131.664 9.56024 132.564 9.56024C134.844 9.56024 136.514 10.0302 137.574 10.9702C138.634 11.9102 139.164 13.3202 139.164 15.2002V21.3802ZM131.994 23.1202C133.074 23.1202 133.914 22.6102 134.514 21.5902V18.7702H133.344C132.264 18.7702 131.454 18.9602 130.914 19.3402C130.394 19.7202 130.134 20.3102 130.134 21.1102C130.134 21.7502 130.294 22.2502 130.614 22.6102C130.954 22.9502 131.414 23.1202 131.994 23.1202Z" fill="#333333"/>
<path fill-rule="evenodd" clip-rule="evenodd" d="M0.0412687 9.2298C2.19529 13.9058 5.7942 19.5795 11.486 23.1361C22.5628 30.0577 37.3715 26.3402 37.3715 26.3402C37.3715 26.3402 34.221 11.4006 23.1442 4.47906C17.4524 0.922414 10.7752 0.17493 5.62821 0.288733C6.48944 4.13148 6.58724 7.10411 6.58724 7.10411C6.58724 7.10411 3.87262 8.31932 0.0412687 9.2298Z" fill="#FF238D"/>
</g>
<defs>
<clipPath id="clip0">
<rect width="156" height="28" fill="white"/>
</clipPath>
</defs>
</svg>
