<svg width="109" height="80" viewBox="0 0 109 80" fill="none" xmlns="http://www.w3.org/2000/svg">
<path d="M50 26L49.5 32.5" stroke="#FF238D" stroke-width="2"/>
<path d="M50.5 17.5L51 0.999992H103L107 68H71" stroke="#FF238D" stroke-width="2"/>
<path d="M87 9.07433C86.8125 14.6144 82.6153 19 77.5013 19C72.3609 19 68.1515 14.5705 68 8.99999" stroke="#0066FF" stroke-width="2" stroke-miterlimit="22.9256"/>
<path fill-rule="evenodd" clip-rule="evenodd" d="M68.0002 6.00001C69.1046 6.00001 70 6.8954 70 7.9998C70 9.10461 69.1046 9.99999 68.0002 9.99999C66.8954 9.99999 66 9.10461 66 7.9998C66 6.8954 66.8954 6.00001 68.0002 6.00001Z" fill="#0066FF"/>
<path fill-rule="evenodd" clip-rule="evenodd" d="M87.0002 6C88.1046 6 89 6.89539 89 7.99979C89 9.1046 88.1046 9.99998 87.0002 9.99998C85.8954 9.99998 85 9.1046 85 7.99979C85 6.89539 85.8954 6 87.0002 6Z" fill="#0066FF"/>
<path d="M28.7198 26.3856L38.544 32.5251M6.6217 32.3008L15.4862 18.1154L23.8525 23.3439M32.524 22.4929L43.4266 32.4023M20.0837 21.494L25.3144 15.7864L28.6028 18.7999" stroke="#FF238D" stroke-width="2" stroke-miterlimit="22.9256"/>
<path fill-rule="evenodd" clip-rule="evenodd" d="M17.0002 33.9996C18.1042 33.9996 19 34.8957 19 35.9998C19 37.1042 18.1042 38 17.0002 38C15.8958 38 15 37.1042 15 35.9998C15 34.8957 15.8958 33.9996 17.0002 33.9996Z" fill="#0066FF"/>
<path fill-rule="evenodd" clip-rule="evenodd" d="M63.0002 34C64.1042 34 65 34.8961 65 36.0002C65 37.1046 64.1042 38.0004 63.0002 38.0004C61.8958 38.0004 61 37.1046 61 36.0002C61 34.8961 61.8958 34 63.0002 34Z" fill="#0066FF"/>
<path d="M40.8058 12.7604C41.8725 11.746 43.6137 11.7489 44.6825 12.7604L65 32L57.3298 31.9974L40.8058 16.447C39.7347 15.4385 39.7394 13.7745 40.8058 12.7604ZM39.1185 12.7604C38.0516 11.746 36.3081 11.7471 35.2414 12.7604L15 31.9814L22.6358 31.9848L39.1181 16.447C40.1888 15.4378 40.1845 13.7745 39.1185 12.7604Z" stroke="#0066FF" stroke-width="2" stroke-miterlimit="22.9256"/>
<path d="M74 40L71.0883 72.2868C70.7573 75.9606 68.0781 79 64.4059 79H15.5946C11.9224 79 9.24303 75.964 8.91168 72.2868L6 40H74Z" stroke="#0066FF" stroke-width="2" stroke-miterlimit="22.9256"/>
<path d="M4.74255 32L75.2273 32.002C77.2859 32.002 78.9996 33.7568 79 35.9335V40L1 39.9973V35.8996C1 33.7201 2.684 32 4.74255 32Z" stroke="#0066FF" stroke-width="2" stroke-miterlimit="22.9256"/>
<path d="M16 47V72M24.0319 47V72M32.0323 47V72M40.0327 47V72M48.0306 47V72M56.0007 47V72M64 47V72" stroke="#FF238D" stroke-width="2" stroke-miterlimit="22.9256"/>
</svg>
