<svg width="35" height="43" viewBox="0 0 35 43" fill="none" xmlns="http://www.w3.org/2000/svg">
<path fill-rule="evenodd" clip-rule="evenodd" d="M19.1098 2.51135C17.8635 3.55758 16.5134 5.65004 16.9288 7.324C17.1365 8.37023 17.9674 8.57948 18.9021 8.47485C20.0445 8.37023 20.9792 7.63787 21.1869 6.48702C21.3947 4.91768 20.2522 3.34833 19.1098 2.51135ZM5.91988 14.9615L7.37389 12.3459C7.5816 12.4505 7.68546 12.4505 7.89318 12.4505C8.51632 12.4505 9.03561 11.9274 9.03561 11.2997C9.03561 10.8812 8.82789 10.5673 8.51632 10.3581L9.86647 7.95174C10.0742 8.05636 10.178 8.05636 10.3858 8.05636C11.0089 8.05636 11.5282 7.53325 11.5282 6.90551C11.5282 6.48702 11.3205 6.17315 11.0089 5.9639L11.7359 4.70843C12.7745 4.81305 13.7092 5.0223 14.7478 5.23154C14.5401 6.27777 14.5401 7.11476 14.7478 7.84712C15.2671 9.93957 17.0326 10.8812 19.1098 10.6719C20.8754 10.4627 22.3294 9.52108 23.0564 7.84712C26.0683 8.99797 28.8724 10.3581 31.2611 11.8228L28.5608 12.5551C28.457 12.032 28.0415 11.7182 27.5223 11.7182C26.8991 11.7182 26.3798 12.2413 26.3798 12.869C26.3798 12.9736 26.3798 13.0783 26.3798 13.1829L15.1632 16.2169C15.0593 15.6938 14.6439 15.38 14.1246 15.38C13.5015 15.38 12.9822 15.9031 12.9822 16.5308C12.9822 16.6354 12.9822 16.7401 12.9822 16.8447L3.21958 19.4603L4.67359 16.9493C4.88131 17.0539 4.98516 17.0539 5.19288 17.0539C5.81602 17.0539 6.33531 16.5308 6.33531 15.9031C6.43917 15.4846 6.23145 15.1707 5.91988 14.9615ZM23.368 5.54541C27.3145 7.01013 31.1573 8.89334 34.5846 11.2997C34.8961 11.5089 35.1039 11.9274 35.1039 12.3459V32.852C35.1039 33.3751 34.7923 33.8982 34.273 34.0028L1.35015 42.8958C0.727003 43.105 0 42.5819 0 41.8495V21.2388C0 21.0296 0.103858 20.7157 0.207715 20.5065L10.178 3.13909C10.3858 2.7206 10.8012 2.40673 11.3205 2.51135C12.6706 2.7206 14.1246 2.92984 15.5786 3.24371C16.2018 2.19748 17.1365 1.15125 18.3828 0.209646C18.6944 0.000400631 19.2137 -0.104222 19.5252 0.105024C21.4985 1.3605 23.1602 3.24371 23.368 5.54541ZM24.095 10.0442C23.4718 10.0442 22.9525 10.5673 22.9525 11.195C22.9525 11.8228 23.4718 12.3459 24.095 12.3459C24.7181 12.3459 25.2374 11.8228 25.2374 11.195C25.2374 10.4627 24.7181 10.0442 24.095 10.0442ZM12.3591 12.1367C11.7359 12.1367 11.2166 12.6598 11.2166 13.2875C11.2166 13.9152 11.7359 14.4384 12.3591 14.4384C12.9822 14.4384 13.5015 13.9152 13.5015 13.2875C13.3976 12.5551 12.9822 12.1367 12.3591 12.1367ZM9.34718 14.2291C8.72404 14.2291 8.20475 14.7522 8.20475 15.38C8.20475 16.0077 8.72404 16.5308 9.34718 16.5308C9.97033 16.5308 10.4896 16.0077 10.4896 15.38C10.4896 14.7522 9.97033 14.2291 9.34718 14.2291ZM20.4599 11.6135C19.8368 11.6135 19.3175 12.1367 19.3175 12.7644C19.3175 13.3921 19.8368 13.9152 20.4599 13.9152C21.0831 13.9152 21.6024 13.3921 21.6024 12.7644C21.6024 12.1367 21.0831 11.6135 20.4599 11.6135ZM16.6172 12.1367C15.9941 12.1367 15.4748 12.6598 15.4748 13.2875C15.4748 13.9152 15.9941 14.4384 16.6172 14.4384C17.2404 14.4384 17.7596 13.9152 17.7596 13.2875C17.6558 12.6598 17.2404 12.1367 16.6172 12.1367ZM12.9822 8.47485C12.3591 8.47485 11.8398 8.99797 11.8398 9.6257C11.8398 10.2534 12.3591 10.7766 12.9822 10.7766C13.6053 10.7766 14.1246 10.2534 14.1246 9.6257C14.0208 8.99797 13.5015 8.47485 12.9822 8.47485ZM2.18101 21.9712V26.5746L32.819 18.3094V13.706L2.18101 21.9712ZM2.18101 28.8763V33.4797L4.05045 32.9566V28.3532L2.18101 28.8763ZM2.18101 35.7814V40.3848L32.819 32.1196V27.5162L2.18101 35.7814ZM32.819 25.2145V20.6111L30.8457 21.1342V25.7376L32.819 25.2145ZM28.6647 21.762L26.7953 22.2851V26.8885L28.6647 26.3654V21.762ZM24.6142 22.9128L22.7448 23.4359V28.0393L24.6142 27.5162V22.9128ZM20.4599 23.959L18.5905 24.4822V29.0856L20.4599 28.5624V23.959ZM16.4095 25.1099L14.5401 25.633V30.2364L16.4095 29.7133V25.1099ZM12.2552 26.1561L10.3858 26.6792V31.2826L12.2552 30.7595V26.1561ZM8.20475 27.307L6.23145 27.8301V32.4335L8.10089 31.9104V27.307H8.20475Z" fill="#C8132C"/>
</svg>
