<svg width="14" height="18" viewBox="0 0 14 18" fill="none" xmlns="http://www.w3.org/2000/svg">
<mask id="path-1-inside-1" fill="white">
<path d="M7.01925 4.03345C5.34995 4.03345 4.00244 5.39355 4.00244 7.07845C4.00244 8.76335 5.34995 10.1234 7.01925 10.1234C8.68855 10.1234 10.0361 8.76335 10.0361 7.07845C10.0361 5.39355 8.68855 4.03345 7.01925 4.03345ZM7.01925 9.10845C5.91309 9.10845 5.00804 8.19495 5.00804 7.07845C5.00804 5.96195 5.91309 5.04845 7.01925 5.04845C8.12541 5.04845 9.03046 5.96195 9.03046 7.07845C9.03046 8.19495 8.12541 9.10845 7.01925 9.10845Z"/>
</mask>
<path d="M7.01925 4.03345C5.34995 4.03345 4.00244 5.39355 4.00244 7.07845C4.00244 8.76335 5.34995 10.1234 7.01925 10.1234C8.68855 10.1234 10.0361 8.76335 10.0361 7.07845C10.0361 5.39355 8.68855 4.03345 7.01925 4.03345ZM7.01925 9.10845C5.91309 9.10845 5.00804 8.19495 5.00804 7.07845C5.00804 5.96195 5.91309 5.04845 7.01925 5.04845C8.12541 5.04845 9.03046 5.96195 9.03046 7.07845C9.03046 8.19495 8.12541 9.10845 7.01925 9.10845Z" fill="white"/>
<path d="M7.01925 2.03345C4.22788 2.03345 2.00244 4.30656 2.00244 7.07845H6.00244C6.00244 6.48054 6.47202 6.03345 7.01925 6.03345V2.03345ZM2.00244 7.07845C2.00244 9.85034 4.22788 12.1234 7.01925 12.1234V8.12345C6.47202 8.12345 6.00244 7.67635 6.00244 7.07845H2.00244ZM7.01925 12.1234C9.81062 12.1234 12.0361 9.85034 12.0361 7.07845H8.03606C8.03606 7.67636 7.56648 8.12345 7.01925 8.12345V12.1234ZM12.0361 7.07845C12.0361 4.30656 9.81062 2.03345 7.01925 2.03345V6.03345C7.56648 6.03345 8.03606 6.48054 8.03606 7.07845H12.0361ZM7.01925 7.10845C7.01898 7.10845 7.02027 7.10845 7.02241 7.1089C7.02442 7.10932 7.02587 7.10984 7.02654 7.11013C7.02751 7.11055 7.02439 7.10933 7.01961 7.10451C7.01483 7.09969 7.0117 7.09456 7.01011 7.09078C7.0094 7.08909 7.00897 7.08765 7.00869 7.08626C7.00843 7.085 7.00804 7.08259 7.00804 7.07845H3.00804C3.00804 9.28194 4.79102 11.1084 7.01925 11.1084V7.10845ZM7.00804 7.07845C7.00804 7.0743 7.00843 7.0719 7.00869 7.07063C7.00897 7.06924 7.0094 7.0678 7.01011 7.06612C7.0117 7.06233 7.01483 7.0572 7.01961 7.05238C7.02439 7.04756 7.02751 7.04634 7.02654 7.04676C7.02587 7.04705 7.02442 7.04758 7.02241 7.04799C7.02027 7.04844 7.01898 7.04845 7.01925 7.04845V3.04845C4.79102 3.04845 3.00804 4.87495 3.00804 7.07845H7.00804ZM7.01925 7.04845C7.01952 7.04845 7.01823 7.04844 7.01609 7.04799C7.01408 7.04758 7.01263 7.04705 7.01196 7.04676C7.01099 7.04634 7.01412 7.04756 7.01889 7.05238C7.02367 7.0572 7.0268 7.06233 7.02839 7.06612C7.0291 7.0678 7.02953 7.06924 7.02981 7.07063C7.03007 7.0719 7.03046 7.0743 7.03046 7.07845H11.0305C11.0305 4.87496 9.24748 3.04845 7.01925 3.04845V7.04845ZM7.03046 7.07845C7.03046 7.08259 7.03007 7.085 7.02981 7.08626C7.02953 7.08765 7.0291 7.08909 7.02839 7.09078C7.0268 7.09456 7.02367 7.09969 7.01889 7.10451C7.01411 7.10933 7.01099 7.11055 7.01196 7.11013C7.01263 7.10984 7.01408 7.10932 7.01609 7.1089C7.01823 7.10845 7.01952 7.10845 7.01925 7.10845V11.1084C9.24748 11.1084 11.0305 9.28194 11.0305 7.07845H7.03046Z" fill="white" mask="url(#path-1-inside-1)"/>
<mask id="path-3-inside-2" fill="white">
<path d="M11.8259 1.88221C10.418 0.562707 8.56773 -0.107192 6.63698 0.0146075C2.91625 0.217607 0 3.3235 0 7.079C0 12.1743 4.92745 16.5591 6.41574 17.7974C6.59675 17.9395 6.79787 18.0004 6.99899 18.0004C7.20011 18.0004 7.42135 17.9395 7.58224 17.7974C8.20572 17.2899 9.83479 15.8892 11.2829 13.981C13.1332 11.5653 14.0382 9.1902 13.998 6.9572C13.998 5.0084 13.2136 3.2017 11.8259 1.88221ZM7.01911 16.9854C5.91294 16.0922 1.0056 11.7886 1.0056 7.0993C1.0056 3.8716 3.4995 1.21231 6.6772 1.04991C6.79787 1.04991 6.91855 1.04991 7.03922 1.04991C8.56773 1.04991 10.0158 1.61831 11.1421 2.67391C12.3287 3.7904 13.0125 5.3332 13.0326 7.0181C13.1131 11.7074 8.12527 16.0719 7.01911 16.9854Z"/>
</mask>
<path d="M11.8259 1.88221C10.418 0.562707 8.56773 -0.107192 6.63698 0.0146075C2.91625 0.217607 0 3.3235 0 7.079C0 12.1743 4.92745 16.5591 6.41574 17.7974C6.59675 17.9395 6.79787 18.0004 6.99899 18.0004C7.20011 18.0004 7.42135 17.9395 7.58224 17.7974C8.20572 17.2899 9.83479 15.8892 11.2829 13.981C13.1332 11.5653 14.0382 9.1902 13.998 6.9572C13.998 5.0084 13.2136 3.2017 11.8259 1.88221ZM7.01911 16.9854C5.91294 16.0922 1.0056 11.7886 1.0056 7.0993C1.0056 3.8716 3.4995 1.21231 6.6772 1.04991C6.79787 1.04991 6.91855 1.04991 7.03922 1.04991C8.56773 1.04991 10.0158 1.61831 11.1421 2.67391C12.3287 3.7904 13.0125 5.3332 13.0326 7.0181C13.1131 11.7074 8.12527 16.0719 7.01911 16.9854Z" fill="white"/>
<path d="M11.8259 1.88221L13.204 0.432809L13.1988 0.42786L13.1936 0.422948L11.8259 1.88221ZM6.63698 0.0146075L6.74593 2.01164L6.75442 2.01117L6.7629 2.01064L6.63698 0.0146075ZM6.41574 17.7974L5.13656 19.3348L5.1584 19.353L5.18075 19.3705L6.41574 17.7974ZM7.58224 17.7974L6.31967 16.2463L6.28847 16.2717L6.25831 16.2983L7.58224 17.7974ZM11.2829 13.981L9.69508 12.7648L9.68967 12.772L11.2829 13.981ZM13.998 6.9572H11.998V6.97521L11.9983 6.99322L13.998 6.9572ZM7.01911 16.9854L5.76264 18.5414L7.03332 19.5675L8.29263 18.5275L7.01911 16.9854ZM6.6772 1.04991V-0.950093H6.62613L6.57512 -0.947487L6.6772 1.04991ZM11.1421 2.67391L12.5126 1.21731L12.5098 1.21465L11.1421 2.67391ZM13.0326 7.0181L11.0327 7.04197L11.0329 7.05241L13.0326 7.0181ZM13.1936 0.422948C11.3853 -1.27188 8.99522 -2.13814 6.51106 -1.98142L6.7629 2.01064C8.14024 1.92375 9.45082 2.3973 10.4582 3.34146L13.1936 0.422948ZM6.52802 -1.98242C1.73191 -1.72075 -2 2.27608 -2 7.079H2C2 4.37093 4.10058 2.15597 6.74593 2.01164L6.52802 -1.98242ZM-2 7.079C-2 10.2536 -0.480298 13.0473 1.05057 15.0856C2.60351 17.1533 4.34212 18.6738 5.13656 19.3348L7.69493 16.26C7.00107 15.6827 5.53181 14.3916 4.24896 12.6835C2.94402 10.946 2 8.99975 2 7.079H-2ZM5.18075 19.3705C5.73206 19.8033 6.37352 20.0004 6.99899 20.0004V16.0004C7.22223 16.0004 7.46144 16.0756 7.65074 16.2242L5.18075 19.3705ZM6.99899 20.0004C7.55266 20.0004 8.28986 19.8408 8.90618 19.2965L6.25831 16.2983C6.41214 16.1625 6.56616 16.0899 6.68231 16.0518C6.79763 16.014 6.9038 16.0004 6.99899 16.0004V20.0004ZM8.84482 19.3485C9.52734 18.7929 11.292 17.2774 12.8761 15.19L9.68967 12.772C8.37758 14.501 6.88409 15.7869 6.31967 16.2463L8.84482 19.3485ZM12.8706 15.1971C14.9041 12.5423 16.0484 9.73678 15.9977 6.92118L11.9983 6.99322C12.028 8.64362 11.3622 10.5883 9.6951 12.7648L12.8706 15.1971ZM15.998 6.9572C15.998 4.45911 14.9878 2.12891 13.204 0.432809L10.4478 3.3316C11.4394 4.2745 11.998 5.5577 11.998 6.9572H15.998ZM8.27558 15.4293C7.79318 15.0398 6.41826 13.8517 5.18248 12.2461C3.91322 10.5969 3.0056 8.78451 3.0056 7.0993H-0.994397C-0.994397 10.1034 0.551653 12.7875 2.0126 14.6857C3.50704 16.6275 5.13887 18.0378 5.76264 18.5414L8.27558 15.4293ZM3.0056 7.0993C3.0056 4.91196 4.68943 3.1541 6.77928 3.0473L6.57512 -0.947487C2.30957 -0.729491 -0.994397 2.83125 -0.994397 7.0993H3.0056ZM6.6772 3.04991C6.67744 3.04991 6.67767 3.04991 6.67791 3.04991C6.67814 3.04991 6.67838 3.04991 6.67862 3.04991C6.67885 3.04991 6.67909 3.04991 6.67932 3.04991C6.67956 3.04991 6.67979 3.04991 6.68003 3.04991C6.68027 3.04991 6.6805 3.04991 6.68074 3.04991C6.68097 3.04991 6.68121 3.04991 6.68144 3.04991C6.68168 3.04991 6.68192 3.04991 6.68215 3.04991C6.68239 3.04991 6.68262 3.04991 6.68286 3.04991C6.68309 3.04991 6.68333 3.04991 6.68357 3.04991C6.6838 3.04991 6.68404 3.04991 6.68427 3.04991C6.68451 3.04991 6.68474 3.04991 6.68498 3.04991C6.68521 3.04991 6.68545 3.04991 6.68569 3.04991C6.68592 3.04991 6.68616 3.04991 6.68639 3.04991C6.68663 3.04991 6.68686 3.04991 6.6871 3.04991C6.68734 3.04991 6.68757 3.04991 6.68781 3.04991C6.68804 3.04991 6.68828 3.04991 6.68851 3.04991C6.68875 3.04991 6.68899 3.04991 6.68922 3.04991C6.68946 3.04991 6.68969 3.04991 6.68993 3.04991C6.69016 3.04991 6.6904 3.04991 6.69064 3.04991C6.69087 3.04991 6.69111 3.04991 6.69134 3.04991C6.69158 3.04991 6.69181 3.04991 6.69205 3.04991C6.69229 3.04991 6.69252 3.04991 6.69276 3.04991C6.69299 3.04991 6.69323 3.04991 6.69346 3.04991C6.6937 3.04991 6.69394 3.04991 6.69417 3.04991C6.69441 3.04991 6.69464 3.04991 6.69488 3.04991C6.69511 3.04991 6.69535 3.04991 6.69559 3.04991C6.69582 3.04991 6.69606 3.04991 6.69629 3.04991C6.69653 3.04991 6.69676 3.04991 6.697 3.04991C6.69724 3.04991 6.69747 3.04991 6.69771 3.04991C6.69794 3.04991 6.69818 3.04991 6.69841 3.04991C6.69865 3.04991 6.69888 3.04991 6.69912 3.04991C6.69936 3.04991 6.69959 3.04991 6.69983 3.04991C6.70006 3.04991 6.7003 3.04991 6.70053 3.04991C6.70077 3.04991 6.70101 3.04991 6.70124 3.04991C6.70148 3.04991 6.70171 3.04991 6.70195 3.04991C6.70218 3.04991 6.70242 3.04991 6.70266 3.04991C6.70289 3.04991 6.70313 3.04991 6.70336 3.04991C6.7036 3.04991 6.70383 3.04991 6.70407 3.04991C6.70431 3.04991 6.70454 3.04991 6.70478 3.04991C6.70501 3.04991 6.70525 3.04991 6.70548 3.04991C6.70572 3.04991 6.70596 3.04991 6.70619 3.04991C6.70643 3.04991 6.70666 3.04991 6.7069 3.04991C6.70713 3.04991 6.70737 3.04991 6.70761 3.04991C6.70784 3.04991 6.70808 3.04991 6.70831 3.04991C6.70855 3.04991 6.70878 3.04991 6.70902 3.04991C6.70926 3.04991 6.70949 3.04991 6.70973 3.04991C6.70996 3.04991 6.7102 3.04991 6.71043 3.04991C6.71067 3.04991 6.71091 3.04991 6.71114 3.04991C6.71138 3.04991 6.71161 3.04991 6.71185 3.04991C6.71208 3.04991 6.71232 3.04991 6.71255 3.04991C6.71279 3.04991 6.71303 3.04991 6.71326 3.04991C6.7135 3.04991 6.71373 3.04991 6.71397 3.04991C6.7142 3.04991 6.71444 3.04991 6.71468 3.04991C6.71491 3.04991 6.71515 3.04991 6.71538 3.04991C6.71562 3.04991 6.71585 3.04991 6.71609 3.04991C6.71633 3.04991 6.71656 3.04991 6.7168 3.04991C6.71703 3.04991 6.71727 3.04991 6.7175 3.04991C6.71774 3.04991 6.71798 3.04991 6.71821 3.04991C6.71845 3.04991 6.71868 3.04991 6.71892 3.04991C6.71915 3.04991 6.71939 3.04991 6.71963 3.04991C6.71986 3.04991 6.7201 3.04991 6.72033 3.04991C6.72057 3.04991 6.7208 3.04991 6.72104 3.04991C6.72128 3.04991 6.72151 3.04991 6.72175 3.04991C6.72198 3.04991 6.72222 3.04991 6.72245 3.04991C6.72269 3.04991 6.72293 3.04991 6.72316 3.04991C6.7234 3.04991 6.72363 3.04991 6.72387 3.04991C6.7241 3.04991 6.72434 3.04991 6.72458 3.04991C6.72481 3.04991 6.72505 3.04991 6.72528 3.04991C6.72552 3.04991 6.72575 3.04991 6.72599 3.04991C6.72622 3.04991 6.72646 3.04991 6.7267 3.04991C6.72693 3.04991 6.72717 3.04991 6.7274 3.04991C6.72764 3.04991 6.72787 3.04991 6.72811 3.04991C6.72835 3.04991 6.72858 3.04991 6.72882 3.04991C6.72905 3.04991 6.72929 3.04991 6.72952 3.04991C6.72976 3.04991 6.73 3.04991 6.73023 3.04991C6.73047 3.04991 6.7307 3.04991 6.73094 3.04991C6.73117 3.04991 6.73141 3.04991 6.73165 3.04991C6.73188 3.04991 6.73212 3.04991 6.73235 3.04991C6.73259 3.04991 6.73282 3.04991 6.73306 3.04991C6.7333 3.04991 6.73353 3.04991 6.73377 3.04991C6.734 3.04991 6.73424 3.04991 6.73447 3.04991C6.73471 3.04991 6.73495 3.04991 6.73518 3.04991C6.73542 3.04991 6.73565 3.04991 6.73589 3.04991C6.73612 3.04991 6.73636 3.04991 6.7366 3.04991C6.73683 3.04991 6.73707 3.04991 6.7373 3.04991C6.73754 3.04991 6.73777 3.04991 6.73801 3.04991C6.73825 3.04991 6.73848 3.04991 6.73872 3.04991C6.73895 3.04991 6.73919 3.04991 6.73942 3.04991C6.73966 3.04991 6.73989 3.04991 6.74013 3.04991C6.74037 3.04991 6.7406 3.04991 6.74084 3.04991C6.74107 3.04991 6.74131 3.04991 6.74154 3.04991C6.74178 3.04991 6.74202 3.04991 6.74225 3.04991C6.74249 3.04991 6.74272 3.04991 6.74296 3.04991C6.74319 3.04991 6.74343 3.04991 6.74367 3.04991C6.7439 3.04991 6.74414 3.04991 6.74437 3.04991C6.74461 3.04991 6.74484 3.04991 6.74508 3.04991C6.74532 3.04991 6.74555 3.04991 6.74579 3.04991C6.74602 3.04991 6.74626 3.04991 6.74649 3.04991C6.74673 3.04991 6.74697 3.04991 6.7472 3.04991C6.74744 3.04991 6.74767 3.04991 6.74791 3.04991C6.74814 3.04991 6.74838 3.04991 6.74862 3.04991C6.74885 3.04991 6.74909 3.04991 6.74932 3.04991C6.74956 3.04991 6.74979 3.04991 6.75003 3.04991C6.75027 3.04991 6.7505 3.04991 6.75074 3.04991C6.75097 3.04991 6.75121 3.04991 6.75144 3.04991C6.75168 3.04991 6.75191 3.04991 6.75215 3.04991C6.75239 3.04991 6.75262 3.04991 6.75286 3.04991C6.75309 3.04991 6.75333 3.04991 6.75356 3.04991C6.7538 3.04991 6.75404 3.04991 6.75427 3.04991C6.75451 3.04991 6.75474 3.04991 6.75498 3.04991C6.75521 3.04991 6.75545 3.04991 6.75569 3.04991C6.75592 3.04991 6.75616 3.04991 6.75639 3.04991C6.75663 3.04991 6.75686 3.04991 6.7571 3.04991C6.75734 3.04991 6.75757 3.04991 6.75781 3.04991C6.75804 3.04991 6.75828 3.04991 6.75851 3.04991C6.75875 3.04991 6.75899 3.04991 6.75922 3.04991C6.75946 3.04991 6.75969 3.04991 6.75993 3.04991C6.76016 3.04991 6.7604 3.04991 6.76064 3.04991C6.76087 3.04991 6.76111 3.04991 6.76134 3.04991C6.76158 3.04991 6.76181 3.04991 6.76205 3.04991C6.76228 3.04991 6.76252 3.04991 6.76276 3.04991C6.76299 3.04991 6.76323 3.04991 6.76346 3.04991C6.7637 3.04991 6.76393 3.04991 6.76417 3.04991C6.76441 3.04991 6.76464 3.04991 6.76488 3.04991C6.76511 3.04991 6.76535 3.04991 6.76558 3.04991C6.76582 3.04991 6.76606 3.04991 6.76629 3.04991C6.76653 3.04991 6.76676 3.04991 6.767 3.04991C6.76723 3.04991 6.76747 3.04991 6.76771 3.04991C6.76794 3.04991 6.76818 3.04991 6.76841 3.04991C6.76865 3.04991 6.76888 3.04991 6.76912 3.04991C6.76936 3.04991 6.76959 3.04991 6.76983 3.04991C6.77006 3.04991 6.7703 3.04991 6.77053 3.04991C6.77077 3.04991 6.77101 3.04991 6.77124 3.04991C6.77148 3.04991 6.77171 3.04991 6.77195 3.04991C6.77218 3.04991 6.77242 3.04991 6.77266 3.04991C6.77289 3.04991 6.77313 3.04991 6.77336 3.04991C6.7736 3.04991 6.77383 3.04991 6.77407 3.04991C6.7743 3.04991 6.77454 3.04991 6.77478 3.04991C6.77501 3.04991 6.77525 3.04991 6.77548 3.04991C6.77572 3.04991 6.77595 3.04991 6.77619 3.04991C6.77643 3.04991 6.77666 3.04991 6.7769 3.04991C6.77713 3.04991 6.77737 3.04991 6.7776 3.04991C6.77784 3.04991 6.77808 3.04991 6.77831 3.04991C6.77855 3.04991 6.77878 3.04991 6.77902 3.04991C6.77925 3.04991 6.77949 3.04991 6.77973 3.04991C6.77996 3.04991 6.7802 3.04991 6.78043 3.04991C6.78067 3.04991 6.7809 3.04991 6.78114 3.04991C6.78138 3.04991 6.78161 3.04991 6.78185 3.04991C6.78208 3.04991 6.78232 3.04991 6.78255 3.04991C6.78279 3.04991 6.78303 3.04991 6.78326 3.04991C6.7835 3.04991 6.78373 3.04991 6.78397 3.04991C6.7842 3.04991 6.78444 3.04991 6.78468 3.04991C6.78491 3.04991 6.78515 3.04991 6.78538 3.04991C6.78562 3.04991 6.78585 3.04991 6.78609 3.04991C6.78632 3.04991 6.78656 3.04991 6.7868 3.04991C6.78703 3.04991 6.78727 3.04991 6.7875 3.04991C6.78774 3.04991 6.78797 3.04991 6.78821 3.04991C6.78845 3.04991 6.78868 3.04991 6.78892 3.04991C6.78915 3.04991 6.78939 3.04991 6.78962 3.04991C6.78986 3.04991 6.7901 3.04991 6.79033 3.04991C6.79057 3.04991 6.7908 3.04991 6.79104 3.04991C6.79127 3.04991 6.79151 3.04991 6.79175 3.04991C6.79198 3.04991 6.79222 3.04991 6.79245 3.04991C6.79269 3.04991 6.79292 3.04991 6.79316 3.04991C6.7934 3.04991 6.79363 3.04991 6.79387 3.04991C6.7941 3.04991 6.79434 3.04991 6.79457 3.04991C6.79481 3.04991 6.79505 3.04991 6.79528 3.04991C6.79552 3.04991 6.79575 3.04991 6.79599 3.04991C6.79622 3.04991 6.79646 3.04991 6.7967 3.04991C6.79693 3.04991 6.79717 3.04991 6.7974 3.04991C6.79764 3.04991 6.79787 3.04991 6.79811 3.04991C6.79835 3.04991 6.79858 3.04991 6.79882 3.04991C6.79905 3.04991 6.79929 3.04991 6.79952 3.04991C6.79976 3.04991 6.79999 3.04991 6.80023 3.04991C6.80047 3.04991 6.8007 3.04991 6.80094 3.04991C6.80117 3.04991 6.80141 3.04991 6.80164 3.04991C6.80188 3.04991 6.80212 3.04991 6.80235 3.04991C6.80259 3.04991 6.80282 3.04991 6.80306 3.04991C6.80329 3.04991 6.80353 3.04991 6.80377 3.04991C6.804 3.04991 6.80424 3.04991 6.80447 3.04991C6.80471 3.04991 6.80494 3.04991 6.80518 3.04991C6.80542 3.04991 6.80565 3.04991 6.80589 3.04991C6.80612 3.04991 6.80636 3.04991 6.80659 3.04991C6.80683 3.04991 6.80707 3.04991 6.8073 3.04991C6.80754 3.04991 6.80777 3.04991 6.80801 3.04991C6.80824 3.04991 6.80848 3.04991 6.80872 3.04991C6.80895 3.04991 6.80919 3.04991 6.80942 3.04991C6.80966 3.04991 6.80989 3.04991 6.81013 3.04991C6.81037 3.04991 6.8106 3.04991 6.81084 3.04991C6.81107 3.04991 6.81131 3.04991 6.81154 3.04991C6.81178 3.04991 6.81202 3.04991 6.81225 3.04991C6.81249 3.04991 6.81272 3.04991 6.81296 3.04991C6.81319 3.04991 6.81343 3.04991 6.81366 3.04991C6.8139 3.04991 6.81414 3.04991 6.81437 3.04991C6.81461 3.04991 6.81484 3.04991 6.81508 3.04991C6.81531 3.04991 6.81555 3.04991 6.81579 3.04991C6.81602 3.04991 6.81626 3.04991 6.81649 3.04991C6.81673 3.04991 6.81696 3.04991 6.8172 3.04991C6.81744 3.04991 6.81767 3.04991 6.81791 3.04991C6.81814 3.04991 6.81838 3.04991 6.81861 3.04991C6.81885 3.04991 6.81909 3.04991 6.81932 3.04991C6.81956 3.04991 6.81979 3.04991 6.82003 3.04991C6.82026 3.04991 6.8205 3.04991 6.82074 3.04991C6.82097 3.04991 6.82121 3.04991 6.82144 3.04991C6.82168 3.04991 6.82191 3.04991 6.82215 3.04991C6.82239 3.04991 6.82262 3.04991 6.82286 3.04991C6.82309 3.04991 6.82333 3.04991 6.82356 3.04991C6.8238 3.04991 6.82404 3.04991 6.82427 3.04991C6.82451 3.04991 6.82474 3.04991 6.82498 3.04991C6.82521 3.04991 6.82545 3.04991 6.82569 3.04991C6.82592 3.04991 6.82616 3.04991 6.82639 3.04991C6.82663 3.04991 6.82686 3.04991 6.8271 3.04991C6.82733 3.04991 6.82757 3.04991 6.82781 3.04991C6.82804 3.04991 6.82828 3.04991 6.82851 3.04991C6.82875 3.04991 6.82898 3.04991 6.82922 3.04991C6.82946 3.04991 6.82969 3.04991 6.82993 3.04991C6.83016 3.04991 6.8304 3.04991 6.83063 3.04991C6.83087 3.04991 6.83111 3.04991 6.83134 3.04991C6.83158 3.04991 6.83181 3.04991 6.83205 3.04991C6.83228 3.04991 6.83252 3.04991 6.83276 3.04991C6.83299 3.04991 6.83323 3.04991 6.83346 3.04991C6.8337 3.04991 6.83393 3.04991 6.83417 3.04991C6.83441 3.04991 6.83464 3.04991 6.83488 3.04991C6.83511 3.04991 6.83535 3.04991 6.83558 3.04991C6.83582 3.04991 6.83606 3.04991 6.83629 3.04991C6.83653 3.04991 6.83676 3.04991 6.837 3.04991C6.83723 3.04991 6.83747 3.04991 6.83771 3.04991C6.83794 3.04991 6.83818 3.04991 6.83841 3.04991C6.83865 3.04991 6.83888 3.04991 6.83912 3.04991C6.83935 3.04991 6.83959 3.04991 6.83983 3.04991C6.84006 3.04991 6.8403 3.04991 6.84053 3.04991C6.84077 3.04991 6.841 3.04991 6.84124 3.04991C6.84148 3.04991 6.84171 3.04991 6.84195 3.04991C6.84218 3.04991 6.84242 3.04991 6.84265 3.04991C6.84289 3.04991 6.84313 3.04991 6.84336 3.04991C6.8436 3.04991 6.84383 3.04991 6.84407 3.04991C6.8443 3.04991 6.84454 3.04991 6.84478 3.04991C6.84501 3.04991 6.84525 3.04991 6.84548 3.04991C6.84572 3.04991 6.84595 3.04991 6.84619 3.04991C6.84643 3.04991 6.84666 3.04991 6.8469 3.04991C6.84713 3.04991 6.84737 3.04991 6.8476 3.04991C6.84784 3.04991 6.84808 3.04991 6.84831 3.04991C6.84855 3.04991 6.84878 3.04991 6.84902 3.04991C6.84925 3.04991 6.84949 3.04991 6.84973 3.04991C6.84996 3.04991 6.8502 3.04991 6.85043 3.04991C6.85067 3.04991 6.8509 3.04991 6.85114 3.04991C6.85138 3.04991 6.85161 3.04991 6.85185 3.04991C6.85208 3.04991 6.85232 3.04991 6.85255 3.04991C6.85279 3.04991 6.85302 3.04991 6.85326 3.04991C6.8535 3.04991 6.85373 3.04991 6.85397 3.04991C6.8542 3.04991 6.85444 3.04991 6.85467 3.04991C6.85491 3.04991 6.85515 3.04991 6.85538 3.04991C6.85562 3.04991 6.85585 3.04991 6.85609 3.04991C6.85632 3.04991 6.85656 3.04991 6.8568 3.04991C6.85703 3.04991 6.85727 3.04991 6.8575 3.04991C6.85774 3.04991 6.85797 3.04991 6.85821 3.04991C6.85845 3.04991 6.85868 3.04991 6.85892 3.04991C6.85915 3.04991 6.85939 3.04991 6.85962 3.04991C6.85986 3.04991 6.8601 3.04991 6.86033 3.04991C6.86057 3.04991 6.8608 3.04991 6.86104 3.04991C6.86127 3.04991 6.86151 3.04991 6.86175 3.04991C6.86198 3.04991 6.86222 3.04991 6.86245 3.04991C6.86269 3.04991 6.86292 3.04991 6.86316 3.04991C6.8634 3.04991 6.86363 3.04991 6.86387 3.04991C6.8641 3.04991 6.86434 3.04991 6.86457 3.04991C6.86481 3.04991 6.86505 3.04991 6.86528 3.04991C6.86552 3.04991 6.86575 3.04991 6.86599 3.04991C6.86622 3.04991 6.86646 3.04991 6.86669 3.04991C6.86693 3.04991 6.86717 3.04991 6.8674 3.04991C6.86764 3.04991 6.86787 3.04991 6.86811 3.04991C6.86834 3.04991 6.86858 3.04991 6.86882 3.04991C6.86905 3.04991 6.86929 3.04991 6.86952 3.04991C6.86976 3.04991 6.86999 3.04991 6.87023 3.04991C6.87047 3.04991 6.8707 3.04991 6.87094 3.04991C6.87117 3.04991 6.87141 3.04991 6.87164 3.04991C6.87188 3.04991 6.87212 3.04991 6.87235 3.04991C6.87259 3.04991 6.87282 3.04991 6.87306 3.04991C6.87329 3.04991 6.87353 3.04991 6.87377 3.04991C6.874 3.04991 6.87424 3.04991 6.87447 3.04991C6.87471 3.04991 6.87494 3.04991 6.87518 3.04991C6.87542 3.04991 6.87565 3.04991 6.87589 3.04991C6.87612 3.04991 6.87636 3.04991 6.87659 3.04991C6.87683 3.04991 6.87707 3.04991 6.8773 3.04991C6.87754 3.04991 6.87777 3.04991 6.87801 3.04991C6.87824 3.04991 6.87848 3.04991 6.87872 3.04991C6.87895 3.04991 6.87919 3.04991 6.87942 3.04991C6.87966 3.04991 6.87989 3.04991 6.88013 3.04991C6.88036 3.04991 6.8806 3.04991 6.88084 3.04991C6.88107 3.04991 6.88131 3.04991 6.88154 3.04991C6.88178 3.04991 6.88201 3.04991 6.88225 3.04991C6.88249 3.04991 6.88272 3.04991 6.88296 3.04991C6.88319 3.04991 6.88343 3.04991 6.88366 3.04991C6.8839 3.04991 6.88414 3.04991 6.88437 3.04991C6.88461 3.04991 6.88484 3.04991 6.88508 3.04991C6.88531 3.04991 6.88555 3.04991 6.88579 3.04991C6.88602 3.04991 6.88626 3.04991 6.88649 3.04991C6.88673 3.04991 6.88696 3.04991 6.8872 3.04991C6.88744 3.04991 6.88767 3.04991 6.88791 3.04991C6.88814 3.04991 6.88838 3.04991 6.88861 3.04991C6.88885 3.04991 6.88909 3.04991 6.88932 3.04991C6.88956 3.04991 6.88979 3.04991 6.89003 3.04991C6.89026 3.04991 6.8905 3.04991 6.89074 3.04991C6.89097 3.04991 6.89121 3.04991 6.89144 3.04991C6.89168 3.04991 6.89191 3.04991 6.89215 3.04991C6.89238 3.04991 6.89262 3.04991 6.89286 3.04991C6.89309 3.04991 6.89333 3.04991 6.89356 3.04991C6.8938 3.04991 6.89403 3.04991 6.89427 3.04991C6.89451 3.04991 6.89474 3.04991 6.89498 3.04991C6.89521 3.04991 6.89545 3.04991 6.89568 3.04991C6.89592 3.04991 6.89616 3.04991 6.89639 3.04991C6.89663 3.04991 6.89686 3.04991 6.8971 3.04991C6.89733 3.04991 6.89757 3.04991 6.89781 3.04991C6.89804 3.04991 6.89828 3.04991 6.89851 3.04991C6.89875 3.04991 6.89898 3.04991 6.89922 3.04991C6.89946 3.04991 6.89969 3.04991 6.89993 3.04991C6.90016 3.04991 6.9004 3.04991 6.90063 3.04991C6.90087 3.04991 6.90111 3.04991 6.90134 3.04991C6.90158 3.04991 6.90181 3.04991 6.90205 3.04991C6.90228 3.04991 6.90252 3.04991 6.90276 3.04991C6.90299 3.04991 6.90323 3.04991 6.90346 3.04991C6.9037 3.04991 6.90393 3.04991 6.90417 3.04991C6.9044 3.04991 6.90464 3.04991 6.90488 3.04991C6.90511 3.04991 6.90535 3.04991 6.90558 3.04991C6.90582 3.04991 6.90605 3.04991 6.90629 3.04991C6.90653 3.04991 6.90676 3.04991 6.907 3.04991C6.90723 3.04991 6.90747 3.04991 6.9077 3.04991C6.90794 3.04991 6.90818 3.04991 6.90841 3.04991C6.90865 3.04991 6.90888 3.04991 6.90912 3.04991C6.90935 3.04991 6.90959 3.04991 6.90983 3.04991C6.91006 3.04991 6.9103 3.04991 6.91053 3.04991C6.91077 3.04991 6.911 3.04991 6.91124 3.04991C6.91148 3.04991 6.91171 3.04991 6.91195 3.04991C6.91218 3.04991 6.91242 3.04991 6.91265 3.04991C6.91289 3.04991 6.91313 3.04991 6.91336 3.04991C6.9136 3.04991 6.91383 3.04991 6.91407 3.04991C6.9143 3.04991 6.91454 3.04991 6.91477 3.04991C6.91501 3.04991 6.91525 3.04991 6.91548 3.04991C6.91572 3.04991 6.91595 3.04991 6.91619 3.04991C6.91642 3.04991 6.91666 3.04991 6.9169 3.04991C6.91713 3.04991 6.91737 3.04991 6.9176 3.04991C6.91784 3.04991 6.91807 3.04991 6.91831 3.04991C6.91855 3.04991 6.91878 3.04991 6.91902 3.04991C6.91925 3.04991 6.91949 3.04991 6.91972 3.04991C6.91996 3.04991 6.9202 3.04991 6.92043 3.04991C6.92067 3.04991 6.9209 3.04991 6.92114 3.04991C6.92137 3.04991 6.92161 3.04991 6.92185 3.04991C6.92208 3.04991 6.92232 3.04991 6.92255 3.04991C6.92279 3.04991 6.92302 3.04991 6.92326 3.04991C6.9235 3.04991 6.92373 3.04991 6.92397 3.04991C6.9242 3.04991 6.92444 3.04991 6.92467 3.04991C6.92491 3.04991 6.92515 3.04991 6.92538 3.04991C6.92562 3.04991 6.92585 3.04991 6.92609 3.04991C6.92632 3.04991 6.92656 3.04991 6.9268 3.04991C6.92703 3.04991 6.92727 3.04991 6.9275 3.04991C6.92774 3.04991 6.92797 3.04991 6.92821 3.04991C6.92844 3.04991 6.92868 3.04991 6.92892 3.04991C6.92915 3.04991 6.92939 3.04991 6.92962 3.04991C6.92986 3.04991 6.93009 3.04991 6.93033 3.04991C6.93057 3.04991 6.9308 3.04991 6.93104 3.04991C6.93127 3.04991 6.93151 3.04991 6.93174 3.04991C6.93198 3.04991 6.93222 3.04991 6.93245 3.04991C6.93269 3.04991 6.93292 3.04991 6.93316 3.04991C6.93339 3.04991 6.93363 3.04991 6.93387 3.04991C6.9341 3.04991 6.93434 3.04991 6.93457 3.04991C6.93481 3.04991 6.93504 3.04991 6.93528 3.04991C6.93552 3.04991 6.93575 3.04991 6.93599 3.04991C6.93622 3.04991 6.93646 3.04991 6.93669 3.04991C6.93693 3.04991 6.93717 3.04991 6.9374 3.04991C6.93764 3.04991 6.93787 3.04991 6.93811 3.04991C6.93834 3.04991 6.93858 3.04991 6.93882 3.04991C6.93905 3.04991 6.93929 3.04991 6.93952 3.04991C6.93976 3.04991 6.93999 3.04991 6.94023 3.04991C6.94046 3.04991 6.9407 3.04991 6.94094 3.04991C6.94117 3.04991 6.94141 3.04991 6.94164 3.04991C6.94188 3.04991 6.94211 3.04991 6.94235 3.04991C6.94259 3.04991 6.94282 3.04991 6.94306 3.04991C6.94329 3.04991 6.94353 3.04991 6.94376 3.04991C6.944 3.04991 6.94424 3.04991 6.94447 3.04991C6.94471 3.04991 6.94494 3.04991 6.94518 3.04991C6.94541 3.04991 6.94565 3.04991 6.94589 3.04991C6.94612 3.04991 6.94636 3.04991 6.94659 3.04991C6.94683 3.04991 6.94706 3.04991 6.9473 3.04991C6.94754 3.04991 6.94777 3.04991 6.94801 3.04991C6.94824 3.04991 6.94848 3.04991 6.94871 3.04991C6.94895 3.04991 6.94919 3.04991 6.94942 3.04991C6.94966 3.04991 6.94989 3.04991 6.95013 3.04991C6.95036 3.04991 6.9506 3.04991 6.95084 3.04991C6.95107 3.04991 6.95131 3.04991 6.95154 3.04991C6.95178 3.04991 6.95201 3.04991 6.95225 3.04991C6.95249 3.04991 6.95272 3.04991 6.95296 3.04991C6.95319 3.04991 6.95343 3.04991 6.95366 3.04991C6.9539 3.04991 6.95413 3.04991 6.95437 3.04991C6.95461 3.04991 6.95484 3.04991 6.95508 3.04991C6.95531 3.04991 6.95555 3.04991 6.95578 3.04991C6.95602 3.04991 6.95626 3.04991 6.95649 3.04991C6.95673 3.04991 6.95696 3.04991 6.9572 3.04991C6.95743 3.04991 6.95767 3.04991 6.95791 3.04991C6.95814 3.04991 6.95838 3.04991 6.95861 3.04991C6.95885 3.04991 6.95908 3.04991 6.95932 3.04991C6.95956 3.04991 6.95979 3.04991 6.96003 3.04991C6.96026 3.04991 6.9605 3.04991 6.96073 3.04991C6.96097 3.04991 6.96121 3.04991 6.96144 3.04991C6.96168 3.04991 6.96191 3.04991 6.96215 3.04991C6.96238 3.04991 6.96262 3.04991 6.96286 3.04991C6.96309 3.04991 6.96333 3.04991 6.96356 3.04991C6.9638 3.04991 6.96403 3.04991 6.96427 3.04991C6.96451 3.04991 6.96474 3.04991 6.96498 3.04991C6.96521 3.04991 6.96545 3.04991 6.96568 3.04991C6.96592 3.04991 6.96616 3.04991 6.96639 3.04991C6.96663 3.04991 6.96686 3.04991 6.9671 3.04991C6.96733 3.04991 6.96757 3.04991 6.9678 3.04991C6.96804 3.04991 6.96828 3.04991 6.96851 3.04991C6.96875 3.04991 6.96898 3.04991 6.96922 3.04991C6.96945 3.04991 6.96969 3.04991 6.96993 3.04991C6.97016 3.04991 6.9704 3.04991 6.97063 3.04991C6.97087 3.04991 6.9711 3.04991 6.97134 3.04991C6.97158 3.04991 6.97181 3.04991 6.97205 3.04991C6.97228 3.04991 6.97252 3.04991 6.97275 3.04991C6.97299 3.04991 6.97323 3.04991 6.97346 3.04991C6.9737 3.04991 6.97393 3.04991 6.97417 3.04991C6.9744 3.04991 6.97464 3.04991 6.97488 3.04991C6.97511 3.04991 6.97535 3.04991 6.97558 3.04991C6.97582 3.04991 6.97605 3.04991 6.97629 3.04991C6.97653 3.04991 6.97676 3.04991 6.977 3.04991C6.97723 3.04991 6.97747 3.04991 6.9777 3.04991C6.97794 3.04991 6.97818 3.04991 6.97841 3.04991C6.97865 3.04991 6.97888 3.04991 6.97912 3.04991C6.97935 3.04991 6.97959 3.04991 6.97983 3.04991C6.98006 3.04991 6.9803 3.04991 6.98053 3.04991C6.98077 3.04991 6.981 3.04991 6.98124 3.04991C6.98147 3.04991 6.98171 3.04991 6.98195 3.04991C6.98218 3.04991 6.98242 3.04991 6.98265 3.04991C6.98289 3.04991 6.98312 3.04991 6.98336 3.04991C6.9836 3.04991 6.98383 3.04991 6.98407 3.04991C6.9843 3.04991 6.98454 3.04991 6.98477 3.04991C6.98501 3.04991 6.98525 3.04991 6.98548 3.04991C6.98572 3.04991 6.98595 3.04991 6.98619 3.04991C6.98642 3.04991 6.98666 3.04991 6.9869 3.04991C6.98713 3.04991 6.98737 3.04991 6.9876 3.04991C6.98784 3.04991 6.98807 3.04991 6.98831 3.04991C6.98855 3.04991 6.98878 3.04991 6.98902 3.04991C6.98925 3.04991 6.98949 3.04991 6.98972 3.04991C6.98996 3.04991 6.9902 3.04991 6.99043 3.04991C6.99067 3.04991 6.9909 3.04991 6.99114 3.04991C6.99137 3.04991 6.99161 3.04991 6.99185 3.04991C6.99208 3.04991 6.99232 3.04991 6.99255 3.04991C6.99279 3.04991 6.99302 3.04991 6.99326 3.04991C6.99349 3.04991 6.99373 3.04991 6.99397 3.04991C6.9942 3.04991 6.99444 3.04991 6.99467 3.04991C6.99491 3.04991 6.99514 3.04991 6.99538 3.04991C6.99562 3.04991 6.99585 3.04991 6.99609 3.04991C6.99632 3.04991 6.99656 3.04991 6.99679 3.04991C6.99703 3.04991 6.99727 3.04991 6.9975 3.04991C6.99774 3.04991 6.99797 3.04991 6.99821 3.04991C6.99844 3.04991 6.99868 3.04991 6.99892 3.04991C6.99915 3.04991 6.99939 3.04991 6.99962 3.04991C6.99986 3.04991 7.00009 3.04991 7.00033 3.04991C7.00057 3.04991 7.0008 3.04991 7.00104 3.04991C7.00127 3.04991 7.00151 3.04991 7.00174 3.04991C7.00198 3.04991 7.00222 3.04991 7.00245 3.04991C7.00269 3.04991 7.00292 3.04991 7.00316 3.04991C7.00339 3.04991 7.00363 3.04991 7.00387 3.04991C7.0041 3.04991 7.00434 3.04991 7.00457 3.04991C7.00481 3.04991 7.00504 3.04991 7.00528 3.04991C7.00552 3.04991 7.00575 3.04991 7.00599 3.04991C7.00622 3.04991 7.00646 3.04991 7.00669 3.04991C7.00693 3.04991 7.00716 3.04991 7.0074 3.04991C7.00764 3.04991 7.00787 3.04991 7.00811 3.04991C7.00834 3.04991 7.00858 3.04991 7.00881 3.04991C7.00905 3.04991 7.00929 3.04991 7.00952 3.04991C7.00976 3.04991 7.00999 3.04991 7.01023 3.04991C7.01046 3.04991 7.0107 3.04991 7.01094 3.04991C7.01117 3.04991 7.01141 3.04991 7.01164 3.04991C7.01188 3.04991 7.01211 3.04991 7.01235 3.04991C7.01259 3.04991 7.01282 3.04991 7.01306 3.04991C7.01329 3.04991 7.01353 3.04991 7.01376 3.04991C7.014 3.04991 7.01424 3.04991 7.01447 3.04991C7.01471 3.04991 7.01494 3.04991 7.01518 3.04991C7.01541 3.04991 7.01565 3.04991 7.01589 3.04991C7.01612 3.04991 7.01636 3.04991 7.01659 3.04991C7.01683 3.04991 7.01706 3.04991 7.0173 3.04991C7.01754 3.04991 7.01777 3.04991 7.01801 3.04991C7.01824 3.04991 7.01848 3.04991 7.01871 3.04991C7.01895 3.04991 7.01919 3.04991 7.01942 3.04991C7.01966 3.04991 7.01989 3.04991 7.02013 3.04991C7.02036 3.04991 7.0206 3.04991 7.02083 3.04991C7.02107 3.04991 7.02131 3.04991 7.02154 3.04991C7.02178 3.04991 7.02201 3.04991 7.02225 3.04991C7.02248 3.04991 7.02272 3.04991 7.02296 3.04991C7.02319 3.04991 7.02343 3.04991 7.02366 3.04991C7.0239 3.04991 7.02413 3.04991 7.02437 3.04991C7.02461 3.04991 7.02484 3.04991 7.02508 3.04991C7.02531 3.04991 7.02555 3.04991 7.02578 3.04991C7.02602 3.04991 7.02626 3.04991 7.02649 3.04991C7.02673 3.04991 7.02696 3.04991 7.0272 3.04991C7.02743 3.04991 7.02767 3.04991 7.02791 3.04991C7.02814 3.04991 7.02838 3.04991 7.02861 3.04991C7.02885 3.04991 7.02908 3.04991 7.02932 3.04991C7.02956 3.04991 7.02979 3.04991 7.03003 3.04991C7.03026 3.04991 7.0305 3.04991 7.03073 3.04991C7.03097 3.04991 7.03121 3.04991 7.03144 3.04991C7.03168 3.04991 7.03191 3.04991 7.03215 3.04991C7.03238 3.04991 7.03262 3.04991 7.03286 3.04991C7.03309 3.04991 7.03333 3.04991 7.03356 3.04991C7.0338 3.04991 7.03403 3.04991 7.03427 3.04991C7.0345 3.04991 7.03474 3.04991 7.03498 3.04991C7.03521 3.04991 7.03545 3.04991 7.03568 3.04991C7.03592 3.04991 7.03615 3.04991 7.03639 3.04991C7.03663 3.04991 7.03686 3.04991 7.0371 3.04991C7.03733 3.04991 7.03757 3.04991 7.0378 3.04991C7.03804 3.04991 7.03828 3.04991 7.03851 3.04991C7.03875 3.04991 7.03898 3.04991 7.03922 3.04991V-0.950093C7.03898 -0.950093 7.03875 -0.950093 7.03851 -0.950093C7.03828 -0.950093 7.03804 -0.950093 7.0378 -0.950093C7.03757 -0.950093 7.03733 -0.950093 7.0371 -0.950093C7.03686 -0.950093 7.03663 -0.950093 7.03639 -0.950093C7.03615 -0.950093 7.03592 -0.950093 7.03568 -0.950093C7.03545 -0.950093 7.03521 -0.950093 7.03498 -0.950093C7.03474 -0.950093 7.0345 -0.950093 7.03427 -0.950093C7.03403 -0.950093 7.0338 -0.950093 7.03356 -0.950093C7.03333 -0.950093 7.03309 -0.950093 7.03286 -0.950093C7.03262 -0.950093 7.03238 -0.950093 7.03215 -0.950093C7.03191 -0.950093 7.03168 -0.950093 7.03144 -0.950093C7.03121 -0.950093 7.03097 -0.950093 7.03073 -0.950093C7.0305 -0.950093 7.03026 -0.950093 7.03003 -0.950093C7.02979 -0.950093 7.02956 -0.950093 7.02932 -0.950093C7.02908 -0.950093 7.02885 -0.950093 7.02861 -0.950093C7.02838 -0.950093 7.02814 -0.950093 7.02791 -0.950093C7.02767 -0.950093 7.02743 -0.950093 7.0272 -0.950093C7.02696 -0.950093 7.02673 -0.950093 7.02649 -0.950093C7.02626 -0.950093 7.02602 -0.950093 7.02578 -0.950093C7.02555 -0.950093 7.02531 -0.950093 7.02508 -0.950093C7.02484 -0.950093 7.02461 -0.950093 7.02437 -0.950093C7.02413 -0.950093 7.0239 -0.950093 7.02366 -0.950093C7.02343 -0.950093 7.02319 -0.950093 7.02296 -0.950093C7.02272 -0.950093 7.02248 -0.950093 7.02225 -0.950093C7.02201 -0.950093 7.02178 -0.950093 7.02154 -0.950093C7.02131 -0.950093 7.02107 -0.950093 7.02083 -0.950093C7.0206 -0.950093 7.02036 -0.950093 7.02013 -0.950093C7.01989 -0.950093 7.01966 -0.950093 7.01942 -0.950093C7.01919 -0.950093 7.01895 -0.950093 7.01871 -0.950093C7.01848 -0.950093 7.01824 -0.950093 7.01801 -0.950093C7.01777 -0.950093 7.01754 -0.950093 7.0173 -0.950093C7.01706 -0.950093 7.01683 -0.950093 7.01659 -0.950093C7.01636 -0.950093 7.01612 -0.950093 7.01589 -0.950093C7.01565 -0.950093 7.01541 -0.950093 7.01518 -0.950093C7.01494 -0.950093 7.01471 -0.950093 7.01447 -0.950093C7.01424 -0.950093 7.014 -0.950093 7.01376 -0.950093C7.01353 -0.950093 7.01329 -0.950093 7.01306 -0.950093C7.01282 -0.950093 7.01259 -0.950093 7.01235 -0.950093C7.01211 -0.950093 7.01188 -0.950093 7.01164 -0.950093C7.01141 -0.950093 7.01117 -0.950093 7.01094 -0.950093C7.0107 -0.950093 7.01046 -0.950093 7.01023 -0.950093C7.00999 -0.950093 7.00976 -0.950093 7.00952 -0.950093C7.00929 -0.950093 7.00905 -0.950093 7.00881 -0.950093C7.00858 -0.950093 7.00834 -0.950093 7.00811 -0.950093C7.00787 -0.950093 7.00764 -0.950093 7.0074 -0.950093C7.00716 -0.950093 7.00693 -0.950093 7.00669 -0.950093C7.00646 -0.950093 7.00622 -0.950093 7.00599 -0.950093C7.00575 -0.950093 7.00552 -0.950093 7.00528 -0.950093C7.00504 -0.950093 7.00481 -0.950093 7.00457 -0.950093C7.00434 -0.950093 7.0041 -0.950093 7.00387 -0.950093C7.00363 -0.950093 7.00339 -0.950093 7.00316 -0.950093C7.00292 -0.950093 7.00269 -0.950093 7.00245 -0.950093C7.00222 -0.950093 7.00198 -0.950093 7.00174 -0.950093C7.00151 -0.950093 7.00127 -0.950093 7.00104 -0.950093C7.0008 -0.950093 7.00057 -0.950093 7.00033 -0.950093C7.00009 -0.950093 6.99986 -0.950093 6.99962 -0.950093C6.99939 -0.950093 6.99915 -0.950093 6.99892 -0.950093C6.99868 -0.950093 6.99844 -0.950093 6.99821 -0.950093C6.99797 -0.950093 6.99774 -0.950093 6.9975 -0.950093C6.99727 -0.950093 6.99703 -0.950093 6.99679 -0.950093C6.99656 -0.950093 6.99632 -0.950093 6.99609 -0.950093C6.99585 -0.950093 6.99562 -0.950093 6.99538 -0.950093C6.99514 -0.950093 6.99491 -0.950093 6.99467 -0.950093C6.99444 -0.950093 6.9942 -0.950093 6.99397 -0.950093C6.99373 -0.950093 6.99349 -0.950093 6.99326 -0.950093C6.99302 -0.950093 6.99279 -0.950093 6.99255 -0.950093C6.99232 -0.950093 6.99208 -0.950093 6.99185 -0.950093C6.99161 -0.950093 6.99137 -0.950093 6.99114 -0.950093C6.9909 -0.950093 6.99067 -0.950093 6.99043 -0.950093C6.9902 -0.950093 6.98996 -0.950093 6.98972 -0.950093C6.98949 -0.950093 6.98925 -0.950093 6.98902 -0.950093C6.98878 -0.950093 6.98855 -0.950093 6.98831 -0.950093C6.98807 -0.950093 6.98784 -0.950093 6.9876 -0.950093C6.98737 -0.950093 6.98713 -0.950093 6.9869 -0.950093C6.98666 -0.950093 6.98642 -0.950093 6.98619 -0.950093C6.98595 -0.950093 6.98572 -0.950093 6.98548 -0.950093C6.98525 -0.950093 6.98501 -0.950093 6.98477 -0.950093C6.98454 -0.950093 6.9843 -0.950093 6.98407 -0.950093C6.98383 -0.950093 6.9836 -0.950093 6.98336 -0.950093C6.98312 -0.950093 6.98289 -0.950093 6.98265 -0.950093C6.98242 -0.950093 6.98218 -0.950093 6.98195 -0.950093C6.98171 -0.950093 6.98147 -0.950093 6.98124 -0.950093C6.981 -0.950093 6.98077 -0.950093 6.98053 -0.950093C6.9803 -0.950093 6.98006 -0.950093 6.97983 -0.950093C6.97959 -0.950093 6.97935 -0.950093 6.97912 -0.950093C6.97888 -0.950093 6.97865 -0.950093 6.97841 -0.950093C6.97818 -0.950093 6.97794 -0.950093 6.9777 -0.950093C6.97747 -0.950093 6.97723 -0.950093 6.977 -0.950093C6.97676 -0.950093 6.97653 -0.950093 6.97629 -0.950093C6.97605 -0.950093 6.97582 -0.950093 6.97558 -0.950093C6.97535 -0.950093 6.97511 -0.950093 6.97488 -0.950093C6.97464 -0.950093 6.9744 -0.950093 6.97417 -0.950093C6.97393 -0.950093 6.9737 -0.950093 6.97346 -0.950093C6.97323 -0.950093 6.97299 -0.950093 6.97275 -0.950093C6.97252 -0.950093 6.97228 -0.950093 6.97205 -0.950093C6.97181 -0.950093 6.97158 -0.950093 6.97134 -0.950093C6.9711 -0.950093 6.97087 -0.950093 6.97063 -0.950093C6.9704 -0.950093 6.97016 -0.950093 6.96993 -0.950093C6.96969 -0.950093 6.96945 -0.950093 6.96922 -0.950093C6.96898 -0.950093 6.96875 -0.950093 6.96851 -0.950093C6.96828 -0.950093 6.96804 -0.950093 6.9678 -0.950093C6.96757 -0.950093 6.96733 -0.950093 6.9671 -0.950093C6.96686 -0.950093 6.96663 -0.950093 6.96639 -0.950093C6.96616 -0.950093 6.96592 -0.950093 6.96568 -0.950093C6.96545 -0.950093 6.96521 -0.950093 6.96498 -0.950093C6.96474 -0.950093 6.96451 -0.950093 6.96427 -0.950093C6.96403 -0.950093 6.9638 -0.950093 6.96356 -0.950093C6.96333 -0.950093 6.96309 -0.950093 6.96286 -0.950093C6.96262 -0.950093 6.96238 -0.950093 6.96215 -0.950093C6.96191 -0.950093 6.96168 -0.950093 6.96144 -0.950093C6.96121 -0.950093 6.96097 -0.950093 6.96073 -0.950093C6.9605 -0.950093 6.96026 -0.950093 6.96003 -0.950093C6.95979 -0.950093 6.95956 -0.950093 6.95932 -0.950093C6.95908 -0.950093 6.95885 -0.950093 6.95861 -0.950093C6.95838 -0.950093 6.95814 -0.950093 6.95791 -0.950093C6.95767 -0.950093 6.95743 -0.950093 6.9572 -0.950093C6.95696 -0.950093 6.95673 -0.950093 6.95649 -0.950093C6.95626 -0.950093 6.95602 -0.950093 6.95578 -0.950093C6.95555 -0.950093 6.95531 -0.950093 6.95508 -0.950093C6.95484 -0.950093 6.95461 -0.950093 6.95437 -0.950093C6.95413 -0.950093 6.9539 -0.950093 6.95366 -0.950093C6.95343 -0.950093 6.95319 -0.950093 6.95296 -0.950093C6.95272 -0.950093 6.95249 -0.950093 6.95225 -0.950093C6.95201 -0.950093 6.95178 -0.950093 6.95154 -0.950093C6.95131 -0.950093 6.95107 -0.950093 6.95084 -0.950093C6.9506 -0.950093 6.95036 -0.950093 6.95013 -0.950093C6.94989 -0.950093 6.94966 -0.950093 6.94942 -0.950093C6.94919 -0.950093 6.94895 -0.950093 6.94871 -0.950093C6.94848 -0.950093 6.94824 -0.950093 6.94801 -0.950093C6.94777 -0.950093 6.94754 -0.950093 6.9473 -0.950093C6.94706 -0.950093 6.94683 -0.950093 6.94659 -0.950093C6.94636 -0.950093 6.94612 -0.950093 6.94589 -0.950093C6.94565 -0.950093 6.94541 -0.950093 6.94518 -0.950093C6.94494 -0.950093 6.94471 -0.950093 6.94447 -0.950093C6.94424 -0.950093 6.944 -0.950093 6.94376 -0.950093C6.94353 -0.950093 6.94329 -0.950093 6.94306 -0.950093C6.94282 -0.950093 6.94259 -0.950093 6.94235 -0.950093C6.94211 -0.950093 6.94188 -0.950093 6.94164 -0.950093C6.94141 -0.950093 6.94117 -0.950093 6.94094 -0.950093C6.9407 -0.950093 6.94046 -0.950093 6.94023 -0.950093C6.93999 -0.950093 6.93976 -0.950093 6.93952 -0.950093C6.93929 -0.950093 6.93905 -0.950093 6.93882 -0.950093C6.93858 -0.950093 6.93834 -0.950093 6.93811 -0.950093C6.93787 -0.950093 6.93764 -0.950093 6.9374 -0.950093C6.93717 -0.950093 6.93693 -0.950093 6.93669 -0.950093C6.93646 -0.950093 6.93622 -0.950093 6.93599 -0.950093C6.93575 -0.950093 6.93552 -0.950093 6.93528 -0.950093C6.93504 -0.950093 6.93481 -0.950093 6.93457 -0.950093C6.93434 -0.950093 6.9341 -0.950093 6.93387 -0.950093C6.93363 -0.950093 6.93339 -0.950093 6.93316 -0.950093C6.93292 -0.950093 6.93269 -0.950093 6.93245 -0.950093C6.93222 -0.950093 6.93198 -0.950093 6.93174 -0.950093C6.93151 -0.950093 6.93127 -0.950093 6.93104 -0.950093C6.9308 -0.950093 6.93057 -0.950093 6.93033 -0.950093C6.93009 -0.950093 6.92986 -0.950093 6.92962 -0.950093C6.92939 -0.950093 6.92915 -0.950093 6.92892 -0.950093C6.92868 -0.950093 6.92844 -0.950093 6.92821 -0.950093C6.92797 -0.950093 6.92774 -0.950093 6.9275 -0.950093C6.92727 -0.950093 6.92703 -0.950093 6.9268 -0.950093C6.92656 -0.950093 6.92632 -0.950093 6.92609 -0.950093C6.92585 -0.950093 6.92562 -0.950093 6.92538 -0.950093C6.92515 -0.950093 6.92491 -0.950093 6.92467 -0.950093C6.92444 -0.950093 6.9242 -0.950093 6.92397 -0.950093C6.92373 -0.950093 6.9235 -0.950093 6.92326 -0.950093C6.92302 -0.950093 6.92279 -0.950093 6.92255 -0.950093C6.92232 -0.950093 6.92208 -0.950093 6.92185 -0.950093C6.92161 -0.950093 6.92137 -0.950093 6.92114 -0.950093C6.9209 -0.950093 6.92067 -0.950093 6.92043 -0.950093C6.9202 -0.950093 6.91996 -0.950093 6.91972 -0.950093C6.91949 -0.950093 6.91925 -0.950093 6.91902 -0.950093C6.91878 -0.950093 6.91855 -0.950093 6.91831 -0.950093C6.91807 -0.950093 6.91784 -0.950093 6.9176 -0.950093C6.91737 -0.950093 6.91713 -0.950093 6.9169 -0.950093C6.91666 -0.950093 6.91642 -0.950093 6.91619 -0.950093C6.91595 -0.950093 6.91572 -0.950093 6.91548 -0.950093C6.91525 -0.950093 6.91501 -0.950093 6.91477 -0.950093C6.91454 -0.950093 6.9143 -0.950093 6.91407 -0.950093C6.91383 -0.950093 6.9136 -0.950093 6.91336 -0.950093C6.91313 -0.950093 6.91289 -0.950093 6.91265 -0.950093C6.91242 -0.950093 6.91218 -0.950093 6.91195 -0.950093C6.91171 -0.950093 6.91148 -0.950093 6.91124 -0.950093C6.911 -0.950093 6.91077 -0.950093 6.91053 -0.950093C6.9103 -0.950093 6.91006 -0.950093 6.90983 -0.950093C6.90959 -0.950093 6.90935 -0.950093 6.90912 -0.950093C6.90888 -0.950093 6.90865 -0.950093 6.90841 -0.950093C6.90818 -0.950093 6.90794 -0.950093 6.9077 -0.950093C6.90747 -0.950093 6.90723 -0.950093 6.907 -0.950093C6.90676 -0.950093 6.90653 -0.950093 6.90629 -0.950093C6.90605 -0.950093 6.90582 -0.950093 6.90558 -0.950093C6.90535 -0.950093 6.90511 -0.950093 6.90488 -0.950093C6.90464 -0.950093 6.9044 -0.950093 6.90417 -0.950093C6.90393 -0.950093 6.9037 -0.950093 6.90346 -0.950093C6.90323 -0.950093 6.90299 -0.950093 6.90276 -0.950093C6.90252 -0.950093 6.90228 -0.950093 6.90205 -0.950093C6.90181 -0.950093 6.90158 -0.950093 6.90134 -0.950093C6.90111 -0.950093 6.90087 -0.950093 6.90063 -0.950093C6.9004 -0.950093 6.90016 -0.950093 6.89993 -0.950093C6.89969 -0.950093 6.89946 -0.950093 6.89922 -0.950093C6.89898 -0.950093 6.89875 -0.950093 6.89851 -0.950093C6.89828 -0.950093 6.89804 -0.950093 6.89781 -0.950093C6.89757 -0.950093 6.89733 -0.950093 6.8971 -0.950093C6.89686 -0.950093 6.89663 -0.950093 6.89639 -0.950093C6.89616 -0.950093 6.89592 -0.950093 6.89568 -0.950093C6.89545 -0.950093 6.89521 -0.950093 6.89498 -0.950093C6.89474 -0.950093 6.89451 -0.950093 6.89427 -0.950093C6.89403 -0.950093 6.8938 -0.950093 6.89356 -0.950093C6.89333 -0.950093 6.89309 -0.950093 6.89286 -0.950093C6.89262 -0.950093 6.89238 -0.950093 6.89215 -0.950093C6.89191 -0.950093 6.89168 -0.950093 6.89144 -0.950093C6.89121 -0.950093 6.89097 -0.950093 6.89074 -0.950093C6.8905 -0.950093 6.89026 -0.950093 6.89003 -0.950093C6.88979 -0.950093 6.88956 -0.950093 6.88932 -0.950093C6.88909 -0.950093 6.88885 -0.950093 6.88861 -0.950093C6.88838 -0.950093 6.88814 -0.950093 6.88791 -0.950093C6.88767 -0.950093 6.88744 -0.950093 6.8872 -0.950093C6.88696 -0.950093 6.88673 -0.950093 6.88649 -0.950093C6.88626 -0.950093 6.88602 -0.950093 6.88579 -0.950093C6.88555 -0.950093 6.88531 -0.950093 6.88508 -0.950093C6.88484 -0.950093 6.88461 -0.950093 6.88437 -0.950093C6.88414 -0.950093 6.8839 -0.950093 6.88366 -0.950093C6.88343 -0.950093 6.88319 -0.950093 6.88296 -0.950093C6.88272 -0.950093 6.88249 -0.950093 6.88225 -0.950093C6.88201 -0.950093 6.88178 -0.950093 6.88154 -0.950093C6.88131 -0.950093 6.88107 -0.950093 6.88084 -0.950093C6.8806 -0.950093 6.88036 -0.950093 6.88013 -0.950093C6.87989 -0.950093 6.87966 -0.950093 6.87942 -0.950093C6.87919 -0.950093 6.87895 -0.950093 6.87872 -0.950093C6.87848 -0.950093 6.87824 -0.950093 6.87801 -0.950093C6.87777 -0.950093 6.87754 -0.950093 6.8773 -0.950093C6.87707 -0.950093 6.87683 -0.950093 6.87659 -0.950093C6.87636 -0.950093 6.87612 -0.950093 6.87589 -0.950093C6.87565 -0.950093 6.87542 -0.950093 6.87518 -0.950093C6.87494 -0.950093 6.87471 -0.950093 6.87447 -0.950093C6.87424 -0.950093 6.874 -0.950093 6.87377 -0.950093C6.87353 -0.950093 6.87329 -0.950093 6.87306 -0.950093C6.87282 -0.950093 6.87259 -0.950093 6.87235 -0.950093C6.87212 -0.950093 6.87188 -0.950093 6.87164 -0.950093C6.87141 -0.950093 6.87117 -0.950093 6.87094 -0.950093C6.8707 -0.950093 6.87047 -0.950093 6.87023 -0.950093C6.86999 -0.950093 6.86976 -0.950093 6.86952 -0.950093C6.86929 -0.950093 6.86905 -0.950093 6.86882 -0.950093C6.86858 -0.950093 6.86834 -0.950093 6.86811 -0.950093C6.86787 -0.950093 6.86764 -0.950093 6.8674 -0.950093C6.86717 -0.950093 6.86693 -0.950093 6.86669 -0.950093C6.86646 -0.950093 6.86622 -0.950093 6.86599 -0.950093C6.86575 -0.950093 6.86552 -0.950093 6.86528 -0.950093C6.86505 -0.950093 6.86481 -0.950093 6.86457 -0.950093C6.86434 -0.950093 6.8641 -0.950093 6.86387 -0.950093C6.86363 -0.950093 6.8634 -0.950093 6.86316 -0.950093C6.86292 -0.950093 6.86269 -0.950093 6.86245 -0.950093C6.86222 -0.950093 6.86198 -0.950093 6.86175 -0.950093C6.86151 -0.950093 6.86127 -0.950093 6.86104 -0.950093C6.8608 -0.950093 6.86057 -0.950093 6.86033 -0.950093C6.8601 -0.950093 6.85986 -0.950093 6.85962 -0.950093C6.85939 -0.950093 6.85915 -0.950093 6.85892 -0.950093C6.85868 -0.950093 6.85845 -0.950093 6.85821 -0.950093C6.85797 -0.950093 6.85774 -0.950093 6.8575 -0.950093C6.85727 -0.950093 6.85703 -0.950093 6.8568 -0.950093C6.85656 -0.950093 6.85632 -0.950093 6.85609 -0.950093C6.85585 -0.950093 6.85562 -0.950093 6.85538 -0.950093C6.85515 -0.950093 6.85491 -0.950093 6.85467 -0.950093C6.85444 -0.950093 6.8542 -0.950093 6.85397 -0.950093C6.85373 -0.950093 6.8535 -0.950093 6.85326 -0.950093C6.85302 -0.950093 6.85279 -0.950093 6.85255 -0.950093C6.85232 -0.950093 6.85208 -0.950093 6.85185 -0.950093C6.85161 -0.950093 6.85138 -0.950093 6.85114 -0.950093C6.8509 -0.950093 6.85067 -0.950093 6.85043 -0.950093C6.8502 -0.950093 6.84996 -0.950093 6.84973 -0.950093C6.84949 -0.950093 6.84925 -0.950093 6.84902 -0.950093C6.84878 -0.950093 6.84855 -0.950093 6.84831 -0.950093C6.84808 -0.950093 6.84784 -0.950093 6.8476 -0.950093C6.84737 -0.950093 6.84713 -0.950093 6.8469 -0.950093C6.84666 -0.950093 6.84643 -0.950093 6.84619 -0.950093C6.84595 -0.950093 6.84572 -0.950093 6.84548 -0.950093C6.84525 -0.950093 6.84501 -0.950093 6.84478 -0.950093C6.84454 -0.950093 6.8443 -0.950093 6.84407 -0.950093C6.84383 -0.950093 6.8436 -0.950093 6.84336 -0.950093C6.84313 -0.950093 6.84289 -0.950093 6.84265 -0.950093C6.84242 -0.950093 6.84218 -0.950093 6.84195 -0.950093C6.84171 -0.950093 6.84148 -0.950093 6.84124 -0.950093C6.841 -0.950093 6.84077 -0.950093 6.84053 -0.950093C6.8403 -0.950093 6.84006 -0.950093 6.83983 -0.950093C6.83959 -0.950093 6.83935 -0.950093 6.83912 -0.950093C6.83888 -0.950093 6.83865 -0.950093 6.83841 -0.950093C6.83818 -0.950093 6.83794 -0.950093 6.83771 -0.950093C6.83747 -0.950093 6.83723 -0.950093 6.837 -0.950093C6.83676 -0.950093 6.83653 -0.950093 6.83629 -0.950093C6.83606 -0.950093 6.83582 -0.950093 6.83558 -0.950093C6.83535 -0.950093 6.83511 -0.950093 6.83488 -0.950093C6.83464 -0.950093 6.83441 -0.950093 6.83417 -0.950093C6.83393 -0.950093 6.8337 -0.950093 6.83346 -0.950093C6.83323 -0.950093 6.83299 -0.950093 6.83276 -0.950093C6.83252 -0.950093 6.83228 -0.950093 6.83205 -0.950093C6.83181 -0.950093 6.83158 -0.950093 6.83134 -0.950093C6.83111 -0.950093 6.83087 -0.950093 6.83063 -0.950093C6.8304 -0.950093 6.83016 -0.950093 6.82993 -0.950093C6.82969 -0.950093 6.82946 -0.950093 6.82922 -0.950093C6.82898 -0.950093 6.82875 -0.950093 6.82851 -0.950093C6.82828 -0.950093 6.82804 -0.950093 6.82781 -0.950093C6.82757 -0.950093 6.82733 -0.950093 6.8271 -0.950093C6.82686 -0.950093 6.82663 -0.950093 6.82639 -0.950093C6.82616 -0.950093 6.82592 -0.950093 6.82569 -0.950093C6.82545 -0.950093 6.82521 -0.950093 6.82498 -0.950093C6.82474 -0.950093 6.82451 -0.950093 6.82427 -0.950093C6.82404 -0.950093 6.8238 -0.950093 6.82356 -0.950093C6.82333 -0.950093 6.82309 -0.950093 6.82286 -0.950093C6.82262 -0.950093 6.82239 -0.950093 6.82215 -0.950093C6.82191 -0.950093 6.82168 -0.950093 6.82144 -0.950093C6.82121 -0.950093 6.82097 -0.950093 6.82074 -0.950093C6.8205 -0.950093 6.82026 -0.950093 6.82003 -0.950093C6.81979 -0.950093 6.81956 -0.950093 6.81932 -0.950093C6.81909 -0.950093 6.81885 -0.950093 6.81861 -0.950093C6.81838 -0.950093 6.81814 -0.950093 6.81791 -0.950093C6.81767 -0.950093 6.81744 -0.950093 6.8172 -0.950093C6.81696 -0.950093 6.81673 -0.950093 6.81649 -0.950093C6.81626 -0.950093 6.81602 -0.950093 6.81579 -0.950093C6.81555 -0.950093 6.81531 -0.950093 6.81508 -0.950093C6.81484 -0.950093 6.81461 -0.950093 6.81437 -0.950093C6.81414 -0.950093 6.8139 -0.950093 6.81366 -0.950093C6.81343 -0.950093 6.81319 -0.950093 6.81296 -0.950093C6.81272 -0.950093 6.81249 -0.950093 6.81225 -0.950093C6.81202 -0.950093 6.81178 -0.950093 6.81154 -0.950093C6.81131 -0.950093 6.81107 -0.950093 6.81084 -0.950093C6.8106 -0.950093 6.81037 -0.950093 6.81013 -0.950093C6.80989 -0.950093 6.80966 -0.950093 6.80942 -0.950093C6.80919 -0.950093 6.80895 -0.950093 6.80872 -0.950093C6.80848 -0.950093 6.80824 -0.950093 6.80801 -0.950093C6.80777 -0.950093 6.80754 -0.950093 6.8073 -0.950093C6.80707 -0.950093 6.80683 -0.950093 6.80659 -0.950093C6.80636 -0.950093 6.80612 -0.950093 6.80589 -0.950093C6.80565 -0.950093 6.80542 -0.950093 6.80518 -0.950093C6.80494 -0.950093 6.80471 -0.950093 6.80447 -0.950093C6.80424 -0.950093 6.804 -0.950093 6.80377 -0.950093C6.80353 -0.950093 6.80329 -0.950093 6.80306 -0.950093C6.80282 -0.950093 6.80259 -0.950093 6.80235 -0.950093C6.80212 -0.950093 6.80188 -0.950093 6.80164 -0.950093C6.80141 -0.950093 6.80117 -0.950093 6.80094 -0.950093C6.8007 -0.950093 6.80047 -0.950093 6.80023 -0.950093C6.79999 -0.950093 6.79976 -0.950093 6.79952 -0.950093C6.79929 -0.950093 6.79905 -0.950093 6.79882 -0.950093C6.79858 -0.950093 6.79835 -0.950093 6.79811 -0.950093C6.79787 -0.950093 6.79764 -0.950093 6.7974 -0.950093C6.79717 -0.950093 6.79693 -0.950093 6.7967 -0.950093C6.79646 -0.950093 6.79622 -0.950093 6.79599 -0.950093C6.79575 -0.950093 6.79552 -0.950093 6.79528 -0.950093C6.79505 -0.950093 6.79481 -0.950093 6.79457 -0.950093C6.79434 -0.950093 6.7941 -0.950093 6.79387 -0.950093C6.79363 -0.950093 6.7934 -0.950093 6.79316 -0.950093C6.79292 -0.950093 6.79269 -0.950093 6.79245 -0.950093C6.79222 -0.950093 6.79198 -0.950093 6.79175 -0.950093C6.79151 -0.950093 6.79127 -0.950093 6.79104 -0.950093C6.7908 -0.950093 6.79057 -0.950093 6.79033 -0.950093C6.7901 -0.950093 6.78986 -0.950093 6.78962 -0.950093C6.78939 -0.950093 6.78915 -0.950093 6.78892 -0.950093C6.78868 -0.950093 6.78845 -0.950093 6.78821 -0.950093C6.78797 -0.950093 6.78774 -0.950093 6.7875 -0.950093C6.78727 -0.950093 6.78703 -0.950093 6.7868 -0.950093C6.78656 -0.950093 6.78632 -0.950093 6.78609 -0.950093C6.78585 -0.950093 6.78562 -0.950093 6.78538 -0.950093C6.78515 -0.950093 6.78491 -0.950093 6.78468 -0.950093C6.78444 -0.950093 6.7842 -0.950093 6.78397 -0.950093C6.78373 -0.950093 6.7835 -0.950093 6.78326 -0.950093C6.78303 -0.950093 6.78279 -0.950093 6.78255 -0.950093C6.78232 -0.950093 6.78208 -0.950093 6.78185 -0.950093C6.78161 -0.950093 6.78138 -0.950093 6.78114 -0.950093C6.7809 -0.950093 6.78067 -0.950093 6.78043 -0.950093C6.7802 -0.950093 6.77996 -0.950093 6.77973 -0.950093C6.77949 -0.950093 6.77925 -0.950093 6.77902 -0.950093C6.77878 -0.950093 6.77855 -0.950093 6.77831 -0.950093C6.77808 -0.950093 6.77784 -0.950093 6.7776 -0.950093C6.77737 -0.950093 6.77713 -0.950093 6.7769 -0.950093C6.77666 -0.950093 6.77643 -0.950093 6.77619 -0.950093C6.77595 -0.950093 6.77572 -0.950093 6.77548 -0.950093C6.77525 -0.950093 6.77501 -0.950093 6.77478 -0.950093C6.77454 -0.950093 6.7743 -0.950093 6.77407 -0.950093C6.77383 -0.950093 6.7736 -0.950093 6.77336 -0.950093C6.77313 -0.950093 6.77289 -0.950093 6.77266 -0.950093C6.77242 -0.950093 6.77218 -0.950093 6.77195 -0.950093C6.77171 -0.950093 6.77148 -0.950093 6.77124 -0.950093C6.77101 -0.950093 6.77077 -0.950093 6.77053 -0.950093C6.7703 -0.950093 6.77006 -0.950093 6.76983 -0.950093C6.76959 -0.950093 6.76936 -0.950093 6.76912 -0.950093C6.76888 -0.950093 6.76865 -0.950093 6.76841 -0.950093C6.76818 -0.950093 6.76794 -0.950093 6.76771 -0.950093C6.76747 -0.950093 6.76723 -0.950093 6.767 -0.950093C6.76676 -0.950093 6.76653 -0.950093 6.76629 -0.950093C6.76606 -0.950093 6.76582 -0.950093 6.76558 -0.950093C6.76535 -0.950093 6.76511 -0.950093 6.76488 -0.950093C6.76464 -0.950093 6.76441 -0.950093 6.76417 -0.950093C6.76393 -0.950093 6.7637 -0.950093 6.76346 -0.950093C6.76323 -0.950093 6.76299 -0.950093 6.76276 -0.950093C6.76252 -0.950093 6.76228 -0.950093 6.76205 -0.950093C6.76181 -0.950093 6.76158 -0.950093 6.76134 -0.950093C6.76111 -0.950093 6.76087 -0.950093 6.76064 -0.950093C6.7604 -0.950093 6.76016 -0.950093 6.75993 -0.950093C6.75969 -0.950093 6.75946 -0.950093 6.75922 -0.950093C6.75899 -0.950093 6.75875 -0.950093 6.75851 -0.950093C6.75828 -0.950093 6.75804 -0.950093 6.75781 -0.950093C6.75757 -0.950093 6.75734 -0.950093 6.7571 -0.950093C6.75686 -0.950093 6.75663 -0.950093 6.75639 -0.950093C6.75616 -0.950093 6.75592 -0.950093 6.75569 -0.950093C6.75545 -0.950093 6.75521 -0.950093 6.75498 -0.950093C6.75474 -0.950093 6.75451 -0.950093 6.75427 -0.950093C6.75404 -0.950093 6.7538 -0.950093 6.75356 -0.950093C6.75333 -0.950093 6.75309 -0.950093 6.75286 -0.950093C6.75262 -0.950093 6.75239 -0.950093 6.75215 -0.950093C6.75191 -0.950093 6.75168 -0.950093 6.75144 -0.950093C6.75121 -0.950093 6.75097 -0.950093 6.75074 -0.950093C6.7505 -0.950093 6.75027 -0.950093 6.75003 -0.950093C6.74979 -0.950093 6.74956 -0.950093 6.74932 -0.950093C6.74909 -0.950093 6.74885 -0.950093 6.74862 -0.950093C6.74838 -0.950093 6.74814 -0.950093 6.74791 -0.950093C6.74767 -0.950093 6.74744 -0.950093 6.7472 -0.950093C6.74697 -0.950093 6.74673 -0.950093 6.74649 -0.950093C6.74626 -0.950093 6.74602 -0.950093 6.74579 -0.950093C6.74555 -0.950093 6.74532 -0.950093 6.74508 -0.950093C6.74484 -0.950093 6.74461 -0.950093 6.74437 -0.950093C6.74414 -0.950093 6.7439 -0.950093 6.74367 -0.950093C6.74343 -0.950093 6.74319 -0.950093 6.74296 -0.950093C6.74272 -0.950093 6.74249 -0.950093 6.74225 -0.950093C6.74202 -0.950093 6.74178 -0.950093 6.74154 -0.950093C6.74131 -0.950093 6.74107 -0.950093 6.74084 -0.950093C6.7406 -0.950093 6.74037 -0.950093 6.74013 -0.950093C6.73989 -0.950093 6.73966 -0.950093 6.73942 -0.950093C6.73919 -0.950093 6.73895 -0.950093 6.73872 -0.950093C6.73848 -0.950093 6.73825 -0.950093 6.73801 -0.950093C6.73777 -0.950093 6.73754 -0.950093 6.7373 -0.950093C6.73707 -0.950093 6.73683 -0.950093 6.7366 -0.950093C6.73636 -0.950093 6.73612 -0.950093 6.73589 -0.950093C6.73565 -0.950093 6.73542 -0.950093 6.73518 -0.950093C6.73495 -0.950093 6.73471 -0.950093 6.73447 -0.950093C6.73424 -0.950093 6.734 -0.950093 6.73377 -0.950093C6.73353 -0.950093 6.7333 -0.950093 6.73306 -0.950093C6.73282 -0.950093 6.73259 -0.950093 6.73235 -0.950093C6.73212 -0.950093 6.73188 -0.950093 6.73165 -0.950093C6.73141 -0.950093 6.73117 -0.950093 6.73094 -0.950093C6.7307 -0.950093 6.73047 -0.950093 6.73023 -0.950093C6.73 -0.950093 6.72976 -0.950093 6.72952 -0.950093C6.72929 -0.950093 6.72905 -0.950093 6.72882 -0.950093C6.72858 -0.950093 6.72835 -0.950093 6.72811 -0.950093C6.72787 -0.950093 6.72764 -0.950093 6.7274 -0.950093C6.72717 -0.950093 6.72693 -0.950093 6.7267 -0.950093C6.72646 -0.950093 6.72622 -0.950093 6.72599 -0.950093C6.72575 -0.950093 6.72552 -0.950093 6.72528 -0.950093C6.72505 -0.950093 6.72481 -0.950093 6.72458 -0.950093C6.72434 -0.950093 6.7241 -0.950093 6.72387 -0.950093C6.72363 -0.950093 6.7234 -0.950093 6.72316 -0.950093C6.72293 -0.950093 6.72269 -0.950093 6.72245 -0.950093C6.72222 -0.950093 6.72198 -0.950093 6.72175 -0.950093C6.72151 -0.950093 6.72128 -0.950093 6.72104 -0.950093C6.7208 -0.950093 6.72057 -0.950093 6.72033 -0.950093C6.7201 -0.950093 6.71986 -0.950093 6.71963 -0.950093C6.71939 -0.950093 6.71915 -0.950093 6.71892 -0.950093C6.71868 -0.950093 6.71845 -0.950093 6.71821 -0.950093C6.71798 -0.950093 6.71774 -0.950093 6.7175 -0.950093C6.71727 -0.950093 6.71703 -0.950093 6.7168 -0.950093C6.71656 -0.950093 6.71633 -0.950093 6.71609 -0.950093C6.71585 -0.950093 6.71562 -0.950093 6.71538 -0.950093C6.71515 -0.950093 6.71491 -0.950093 6.71468 -0.950093C6.71444 -0.950093 6.7142 -0.950093 6.71397 -0.950093C6.71373 -0.950093 6.7135 -0.950093 6.71326 -0.950093C6.71303 -0.950093 6.71279 -0.950093 6.71255 -0.950093C6.71232 -0.950093 6.71208 -0.950093 6.71185 -0.950093C6.71161 -0.950093 6.71138 -0.950093 6.71114 -0.950093C6.71091 -0.950093 6.71067 -0.950093 6.71043 -0.950093C6.7102 -0.950093 6.70996 -0.950093 6.70973 -0.950093C6.70949 -0.950093 6.70926 -0.950093 6.70902 -0.950093C6.70878 -0.950093 6.70855 -0.950093 6.70831 -0.950093C6.70808 -0.950093 6.70784 -0.950093 6.70761 -0.950093C6.70737 -0.950093 6.70713 -0.950093 6.7069 -0.950093C6.70666 -0.950093 6.70643 -0.950093 6.70619 -0.950093C6.70596 -0.950093 6.70572 -0.950093 6.70548 -0.950093C6.70525 -0.950093 6.70501 -0.950093 6.70478 -0.950093C6.70454 -0.950093 6.70431 -0.950093 6.70407 -0.950093C6.70383 -0.950093 6.7036 -0.950093 6.70336 -0.950093C6.70313 -0.950093 6.70289 -0.950093 6.70266 -0.950093C6.70242 -0.950093 6.70218 -0.950093 6.70195 -0.950093C6.70171 -0.950093 6.70148 -0.950093 6.70124 -0.950093C6.70101 -0.950093 6.70077 -0.950093 6.70053 -0.950093C6.7003 -0.950093 6.70006 -0.950093 6.69983 -0.950093C6.69959 -0.950093 6.69936 -0.950093 6.69912 -0.950093C6.69888 -0.950093 6.69865 -0.950093 6.69841 -0.950093C6.69818 -0.950093 6.69794 -0.950093 6.69771 -0.950093C6.69747 -0.950093 6.69724 -0.950093 6.697 -0.950093C6.69676 -0.950093 6.69653 -0.950093 6.69629 -0.950093C6.69606 -0.950093 6.69582 -0.950093 6.69559 -0.950093C6.69535 -0.950093 6.69511 -0.950093 6.69488 -0.950093C6.69464 -0.950093 6.69441 -0.950093 6.69417 -0.950093C6.69394 -0.950093 6.6937 -0.950093 6.69346 -0.950093C6.69323 -0.950093 6.69299 -0.950093 6.69276 -0.950093C6.69252 -0.950093 6.69229 -0.950093 6.69205 -0.950093C6.69181 -0.950093 6.69158 -0.950093 6.69134 -0.950093C6.69111 -0.950093 6.69087 -0.950093 6.69064 -0.950093C6.6904 -0.950093 6.69016 -0.950093 6.68993 -0.950093C6.68969 -0.950093 6.68946 -0.950093 6.68922 -0.950093C6.68899 -0.950093 6.68875 -0.950093 6.68851 -0.950093C6.68828 -0.950093 6.68804 -0.950093 6.68781 -0.950093C6.68757 -0.950093 6.68734 -0.950093 6.6871 -0.950093C6.68686 -0.950093 6.68663 -0.950093 6.68639 -0.950093C6.68616 -0.950093 6.68592 -0.950093 6.68569 -0.950093C6.68545 -0.950093 6.68521 -0.950093 6.68498 -0.950093C6.68474 -0.950093 6.68451 -0.950093 6.68427 -0.950093C6.68404 -0.950093 6.6838 -0.950093 6.68357 -0.950093C6.68333 -0.950093 6.68309 -0.950093 6.68286 -0.950093C6.68262 -0.950093 6.68239 -0.950093 6.68215 -0.950093C6.68192 -0.950093 6.68168 -0.950093 6.68144 -0.950093C6.68121 -0.950093 6.68097 -0.950093 6.68074 -0.950093C6.6805 -0.950093 6.68027 -0.950093 6.68003 -0.950093C6.67979 -0.950093 6.67956 -0.950093 6.67932 -0.950093C6.67909 -0.950093 6.67885 -0.950093 6.67862 -0.950093C6.67838 -0.950093 6.67814 -0.950093 6.67791 -0.950093C6.67767 -0.950093 6.67744 -0.950093 6.6772 -0.950093V3.04991ZM7.03922 3.04991C8.06072 3.04991 9.01953 3.42567 9.77439 4.13316L12.5098 1.21465C11.0121 -0.189056 9.07475 -0.950093 7.03922 -0.950093V3.04991ZM9.77155 4.1305C10.559 4.87145 11.0191 5.89552 11.0328 7.04197L15.0325 6.99423C15.0059 4.77089 14.0983 2.70936 12.5126 1.21731L9.77155 4.1305ZM11.0329 7.05241C11.0615 8.71662 10.1663 10.5298 8.88435 12.1999C7.63948 13.8216 6.24428 15.0314 5.74558 15.4433L8.29263 18.5275C8.9001 18.0259 10.5519 16.5967 12.0573 14.6355C13.5257 12.7226 15.0842 10.0089 15.0323 6.9838L11.0329 7.05241Z" fill="white" mask="url(#path-3-inside-2)"/>
</svg>
