<svg width="34" height="43" viewBox="0 0 34 43" fill="none" xmlns="http://www.w3.org/2000/svg">
<path fill-rule="evenodd" clip-rule="evenodd" d="M12.9325 0H21.0675C21.9018 0 22.5276 0.621687 22.5276 1.4506V5.18072C22.5276 5.90602 21.9018 6.63133 21.0675 6.63133H20.3374V9.63614C21.7975 9.94699 23.2577 10.3614 24.5092 11.0867L25.9693 8.49639L25.0307 7.8747C24.5092 7.56386 24.3006 6.94217 24.6135 6.4241C24.9264 5.90602 25.5521 5.6988 26.0736 6.00964L29.8282 8.18554C30.3497 8.49639 30.5583 9.11807 30.2454 9.63614C29.9325 10.1542 29.3067 10.3614 28.7853 10.0506L27.8466 9.53253L26.3865 12.1229C27.3252 12.7446 28.1595 13.4699 28.9939 14.1952C32.0184 17.2 34 21.4482 34 26.1108C34 30.7735 32.1227 35.0217 28.9939 38.0265C25.9693 41.0313 21.6933 43 17 43C12.3067 43 8.03067 41.1349 5.00613 38.0265C1.8773 35.0217 0 30.7735 0 26.1108C0 21.4482 1.8773 17.2 5.00613 14.1952C7.30061 11.9157 10.3252 10.2578 13.6626 9.53253V6.63133H12.9325C12.0982 6.63133 11.4724 6.00964 11.4724 5.18072V1.4506C11.4724 0.621687 12.0982 0 12.9325 0ZM4.58896 26.1108C4.58896 26.7325 5.11043 27.2506 5.7362 27.2506C6.36196 27.2506 6.88344 26.7325 6.88344 26.1108C6.88344 25.4892 6.36196 24.9711 5.7362 24.9711C5.00613 25.0747 4.58896 25.5928 4.58896 26.1108ZM18.0429 2.1759V4.35181H20.2331V2.1759H18.0429ZM15.8528 4.45542V2.1759H13.6626V4.35181H15.8528V4.45542ZM27.1166 26.1108C27.1166 26.7325 27.638 27.2506 28.2638 27.2506C28.8896 27.2506 29.411 26.7325 29.411 26.1108C29.411 25.4892 28.8896 24.9711 28.2638 24.9711C27.638 25.0747 27.1166 25.5928 27.1166 26.1108ZM17 13.8843C16.3742 13.8843 15.8528 14.4024 15.8528 15.0241C15.8528 15.6458 16.3742 16.1639 17 16.1639C17.6258 16.1639 18.1472 15.6458 18.1472 15.0241C18.0429 14.4024 17.6258 13.8843 17 13.8843ZM17 36.2651C16.3742 36.2651 15.8528 36.7831 15.8528 37.4048C15.8528 38.0265 16.3742 38.5446 17 38.5446C17.6258 38.5446 18.1472 38.0265 18.1472 37.4048C18.0429 36.6795 17.6258 36.2651 17 36.2651ZM17 22.7952C16.4785 22.7952 16.0613 22.8988 15.5399 23.106L9.80368 17.4072C9.3865 16.9928 8.65644 16.9928 8.23926 17.4072C7.82209 17.8217 7.82209 18.547 8.23926 18.9614L13.9755 24.6602C13.7669 25.0747 13.6626 25.5928 13.6626 26.1108C13.6626 27.9759 15.1227 29.4265 17 29.4265C17.5215 29.4265 17.9387 29.3229 18.4601 29.1157L20.1288 30.7735C20.546 31.188 21.2761 31.188 21.6933 30.7735C22.1104 30.359 22.1104 29.6337 21.6933 29.2193L20.0245 27.5614C20.2331 27.147 20.3374 26.6289 20.3374 26.1108C20.3374 24.3494 18.773 22.7952 17 22.7952ZM17 25.0747C16.3742 25.0747 15.8528 25.5928 15.8528 26.2145C15.8528 26.8361 16.3742 27.3542 17 27.3542C17.6258 27.3542 18.1472 26.8361 18.1472 26.2145C18.0429 25.5928 17.6258 25.0747 17 25.0747ZM18.0429 9.3253V6.63133H15.8528V9.3253C16.5828 9.22169 17.3129 9.22169 18.0429 9.3253ZM27.4294 15.7494C24.7178 13.0554 21.0675 11.5012 17 11.5012C12.9325 11.5012 9.28221 13.159 6.57055 15.7494C3.8589 18.4434 2.29448 22.0699 2.29448 26.1108C2.29448 30.1518 3.96319 33.7783 6.57055 36.4723C9.28221 39.1663 12.9325 40.7205 17 40.7205C21.0675 40.7205 24.7178 39.0627 27.4294 36.4723C30.1411 33.7783 31.7055 30.1518 31.7055 26.1108C31.7055 22.0699 30.0368 18.4434 27.4294 15.7494Z" fill="#C8132C"/>
</svg>
