<svg xmlns="http://www.w3.org/2000/svg" viewBox="0 0 206.8 113.4"><defs><style>.cls-1{fill:#c1001f;}.cls-2{fill:#fff;}</style></defs><title>Ресурс 1</title><g id="Слой_2" data-name="Слой 2"><g id="Слой_1-2" data-name="Слой 1"><g id="Layer_1" data-name="Layer 1"><path class="cls-1" d="M77.7,28.7a25.41,25.41,0,0,0,8.9,19.4c4.5,3.9,7,4.7,8.5,4.1,2.7-1,2.2-6.5,1.3-8-3.4-6-11.1-18.1-7.6-25.6.2-.4-1-11.7-5.7-5.6A25.32,25.32,0,0,0,77.7,28.7Z"/><path class="cls-2" d="M93.8,35.6c1.6,6.6,6.6,10.7,10.6,13.5a15.48,15.48,0,0,0,5.2,2.4,14.55,14.55,0,0,0,10.2-1.7c10.4-5.7,13.3-20.4,6.4-32.8S105.3-.6,94.6,4.6C92.3,5.7,88.3,6.4,88,9.8c-.2,2.2,2.4,5.8,1.4,9.8C87.9,26.6,92.5,29.8,93.8,35.6Z"/><path d="M103.4,0C87,0,74.7,12.3,74.7,28.7S87,57.4,103.4,57.4s28.7-12.3,28.7-28.7S119.8,0,103.4,0ZM129,26.6a25.68,25.68,0,0,1-11,23.2,12,12,0,0,1-7.4,1.5c-4.1-.9-9.2-5.9-9.6-7a21.57,21.57,0,0,1-2.9-4.5c-1-2.1-2-4.1-3.1-6.1a5.61,5.61,0,0,1-.9-3.1,1.16,1.16,0,0,0-.8-1.2,3.68,3.68,0,0,1-2.2-2.5,18,18,0,0,0-.8-2.1,3.08,3.08,0,0,1-.4-2.1c.3-1.5.6-2.9.9-4.4a3.79,3.79,0,0,0,0-1.5,18.61,18.61,0,0,1-.8-4.1c-.1-1-3.1-1.9-1.6-4.1,1.2-1.7,3.6-2.8,5.7-3.9h0a25.66,25.66,0,0,1,33.2,14.6A26.71,26.71,0,0,1,129,26.6ZM77.7,28.7a25.53,25.53,0,0,1,5.7-16.1,2.73,2.73,0,0,1,1.9-.8c2.2.5,2.9,2.6,3.1,4.7a6.05,6.05,0,0,1,0,1.9,1.7,1.7,0,0,0-.7.1,2.35,2.35,0,0,0-1.3,2.6,75.25,75.25,0,0,1,1,8.3,6.07,6.07,0,0,0,.8,2.6c.5.7.8.7,1.5.3h.1c.5,1.1,1,2.1,1.4,3.2.6,1.3,1,2.8,1.7,4.1.9,1.7,2,3.3,3,5,.2.5.4.9.6,1.4a8.22,8.22,0,0,1,.1,3.5,3.83,3.83,0,0,1-1.3,2.4,3.9,3.9,0,0,1-3,0A25.68,25.68,0,0,1,77.7,28.7Z"/><path d="M119.5,36.8h-.1a4.25,4.25,0,0,1-1.1.2c-.4.1-.8.1-1.1.2a14.77,14.77,0,0,1-2.1.1h-5.8a.6.6,0,0,1-.4-.1l-.2-.1a5,5,0,0,0-1.2-.2,1.48,1.48,0,0,1-.7-.1h-.2c-.5,0-.8.2-.8.4a1.85,1.85,0,0,0-.2.7v.2l.2.2c.1.1.2.2.3.2l.1.1.1.1a1.42,1.42,0,0,0,.6.2c.1,0,.2.1.4.1a14.16,14.16,0,0,0,2,.4,37,37,0,0,0,4.7.2h.2c.4,0,.9-.1,1.3-.1a9.88,9.88,0,0,0,4.5-1,.92.92,0,0,0,.4-1.3v-.1A1.56,1.56,0,0,0,119.5,36.8Z"/><path d="M107.9,31.5l.2.2h.1l.1.1h.2l.9-.1.8-.1h.1a3,3,0,0,1,1.3-.2,2.92,2.92,0,0,1,.9.2c.2,0,.5.1.7.1a1.27,1.27,0,0,1,.6.1,18.29,18.29,0,0,0,3.3.2h.2c.2-.1.5-.1.7-.2h.5v-.4c.1-.1.1-.2.1-.4v-.5l-.2-.1a2.3,2.3,0,0,0-2.4-.9,6.51,6.51,0,0,1-3.1-.1l-1.6-.3a1.27,1.27,0,0,0-.6.1h-.4a1.88,1.88,0,0,0-.8.2,3,3,0,0,1-1,.2h-.2l-.1.1A1.36,1.36,0,0,0,107.9,31.5Z"/><path d="M106,21a2.29,2.29,0,0,0,1.7-.8h0l.3-.2-.3-.4c-.3-.3-2.3-1.3-2.8-.9l-.1.1-.5-.1a2.2,2.2,0,0,1-.8-.1,16.55,16.55,0,0,0-3.2-.3v-.1l-.2.1a3.59,3.59,0,0,0-1.1.2H97.3l-.5.1v.7l.2.1a.22.22,0,0,0,.2.2l.1.1h.9V20l.4.1c.1,0,.2.1.3.1a3.59,3.59,0,0,0,1.1.2h0l5.3.3h.1c0,.2.3.4.6.3Z"/><path d="M125.8,18.9a1.48,1.48,0,0,0-.7-.1h-.4a1.73,1.73,0,0,0-1-.1c-.5,0-1,.1-1.4.1a6.6,6.6,0,0,0-1.4.1h-1l-.1-.2h-.3a3,3,0,0,0-2,1.3l-.1.1h0a.37.37,0,0,0-.1.3v.2l.2.1c.1.1.2.1.4.1s.6-.1.9-.1.5-.1.7-.1h3a11.33,11.33,0,0,0,2.6-.1h.4l.3-.3a.65.65,0,0,0,.6-.6A.73.73,0,0,0,125.8,18.9Z"/><path class="cls-1" d="M103.4,3h-1.5a12.19,12.19,0,0,0,12.4,12,12.64,12.64,0,0,0,8.3-3.4A25.71,25.71,0,0,0,103.4,3Z"/><path id="Hatimaki-Copy-2" class="cls-2" d="M14.5,95V87.4a3.6,3.6,0,1,1,7.2,0v22.4a3.6,3.6,0,1,1-7.2,0v-8.4H7.2v8.4a3.5,3.5,0,0,1-3.6,3.5A3.5,3.5,0,0,1,0,109.8V87.4a3.5,3.5,0,0,1,3.6-3.5,3.5,3.5,0,0,1,3.6,3.5V95Zm21.2,15.8a3.79,3.79,0,0,1-3.3,2.5,3.54,3.54,0,0,1-3.5-3.5,3.19,3.19,0,0,1,.3-1.4l7.7-21.5a4.3,4.3,0,0,1,8.2,0l7.6,21.5a3.19,3.19,0,0,1,.3,1.4,3.48,3.48,0,0,1-3.5,3.5h0a3.42,3.42,0,0,1-3.3-2.5l-1.3-3.9-4-12ZM59.5,90.3a3.2,3.2,0,0,1,0-6.4H74.8a3.2,3.2,0,1,1,0,6.4H70.6v19.4a3.5,3.5,0,0,1-7,0V90.3Zm33-2.9v22.4a3.6,3.6,0,1,1-7.2,0V87.4a3.5,3.5,0,0,1,3.6-3.5,3.54,3.54,0,0,1,3.6,3.4v.1Zm28.9,16.9a3.88,3.88,0,0,1-7,0l-2.8-5v10.5a3.5,3.5,0,0,1-7,0h0V87.3a3.35,3.35,0,0,1,3.3-3.4h.1a4,4,0,0,1,3.6,2.4l6.3,11.4,6.3-11.4a3.8,3.8,0,0,1,3.6-2.4,3.35,3.35,0,0,1,3.4,3.3v22.6a3.5,3.5,0,1,1-7,0h0V99.3Zm24.3,6.5a3.79,3.79,0,0,1-3.3,2.5,3.54,3.54,0,0,1-3.5-3.5,3.19,3.19,0,0,1,.3-1.4l7.7-21.5a4.3,4.3,0,0,1,8.2,0l7.6,21.5a3.19,3.19,0,0,1,.3,1.4,3.48,3.48,0,0,1-3.5,3.5h0a3.42,3.42,0,0,1-3.3-2.5l-1.3-3.9-4-11.9Zm31.8-7.8v6.8a3.48,3.48,0,0,1-3.5,3.5h0a3.54,3.54,0,0,1-3.5-3.5V87.4a3.48,3.48,0,0,1,3.5-3.5h0a3.54,3.54,0,0,1,3.5,3.5V95l1-.6c3.7-2.4,4.9-4.2,5.2-7.1a3.52,3.52,0,0,1,3.5-3.4,3.46,3.46,0,0,1,3.5,3.4v.2a13.41,13.41,0,0,1-5.5,10.4l6.6,10a3.29,3.29,0,0,1,.6,1.9,3.48,3.48,0,0,1-3.5,3.5h0a3.65,3.65,0,0,1-3.1-1.8l-6.3-9.7Zm29.3-15.6v22.4a3.6,3.6,0,0,1-7.2,0V87.4a3.5,3.5,0,0,1,3.6-3.5,3.54,3.54,0,0,1,3.6,3.4v.1Z"/></g></g></g></svg>